<svg viewBox="0 0 48 30" fill="none" xmlns="http://www.w3.org/2000/svg">
<path d="M27.5925 25.0075L27.744 25.1819C27.982 25.4653 28.3066 25.6615 28.6745 25.7051L31.7476 26.1412H33.9117V25.2909C33.9117 25.2037 33.8251 25.1383 33.7602 25.1601L31.7259 25.7051L28.3066 25.1819L27.9604 24.7458C27.8738 24.6368 27.7223 24.6368 27.6358 24.724C27.5276 24.7894 27.5059 24.9203 27.5925 25.0075Z" fill="#595B5B"/>
<path d="M33.7168 25.16L32.4617 25.487V26.1193H33.8683V25.2908C33.8683 25.2036 33.8034 25.1382 33.7168 25.16Z" fill="#333333"/>
<path d="M29.2155 25.16H34.0847C34.0847 25.16 34.8638 21.8242 35.3182 21.0394C35.7727 20.2545 36.0108 20.0801 35.8376 19.7094C35.6861 19.3388 35.21 19.317 33.2191 19.644C31.2281 19.971 30.1027 19.3606 29.7132 20.7559C29.3237 22.1731 29.2155 25.16 29.2155 25.16Z" fill="#1D1D1D"/>
<path d="M30.449 23.9389L30.0378 25.1817H30.6005L30.8818 24.3314C30.8818 24.3314 31.0333 24.0915 30.752 23.9389C30.4923 23.7863 30.449 23.9389 30.449 23.9389Z" fill="#595B5B"/>
<path d="M31.6393 23.9389L31.2281 25.1817H31.7908L32.0722 24.3314C32.0722 24.3314 32.2236 24.0915 31.9423 23.9389C31.661 23.7863 31.6393 23.9389 31.6393 23.9389Z" fill="#595B5B"/>
<path d="M32.8079 23.9389L32.3967 25.1817H32.9594L33.2407 24.3314C33.2407 24.3314 33.3922 24.0915 33.1109 23.9389C32.8512 23.7863 32.8079 23.9389 32.8079 23.9389Z" fill="#595B5B"/>
<path d="M42.936 18.1612L46.4635 22.0638C46.5501 22.1728 46.68 22.2164 46.8098 22.2164H47.762C47.9568 22.2164 48.065 21.9984 47.9568 21.8458L44.8405 17.5507C44.8405 17.5507 42.9144 17.5071 42.7846 17.6816C42.6763 17.8778 42.936 18.1612 42.936 18.1612Z" fill="#464646"/>
<path d="M44.8403 17.5508C44.8403 17.5508 44.4292 17.5508 43.9747 17.5508C43.9531 17.7252 44.1478 17.9432 44.1478 17.9432L47.6753 21.8458C47.7619 21.933 47.8701 21.9984 47.9783 21.9984C47.9783 21.9548 47.9783 21.8894 47.935 21.8458L44.8403 17.5508Z" fill="#6B6B6B"/>
<path d="M47.5672 22.1512C47.4373 22.1512 47.3075 22.0858 47.2209 21.9986L43.6934 18.096C43.6934 18.096 43.4121 17.8126 43.5419 17.6382C43.5636 17.6164 43.6285 17.5728 43.7367 17.5728C43.2822 17.5946 42.8494 17.6164 42.7845 17.7036C42.6546 17.878 42.936 18.1614 42.936 18.1614L46.4635 22.064C46.55 22.173 46.6799 22.2167 46.8097 22.2167H47.7619C47.8269 22.2167 47.8701 22.1948 47.9134 22.1512H47.5672Z" fill="#1D1D1D"/>
<path d="M33.4466 23.986C34.2275 23.1722 34.2056 21.8748 33.3978 21.0881C32.59 20.3015 31.3022 20.3235 30.5214 21.1373C29.7405 21.9511 29.7624 23.2485 30.5702 24.0352C31.378 24.8218 32.6658 24.7998 33.4466 23.986Z" fill="#595B5B"/>
<path d="M33.0892 22.5655C33.0892 23.176 32.5915 23.6775 31.9855 23.6775C31.3796 23.6775 30.8818 23.176 30.8818 22.5655C30.8818 21.9551 31.3796 21.4536 31.9855 21.4536C32.5915 21.4536 33.0892 21.9551 33.0892 22.5655Z" fill="#303030"/>
<path d="M31.9855 23.3719C31.4229 23.3719 30.9684 22.9577 30.9035 22.4126C30.9035 22.4562 30.8818 22.4998 30.8818 22.5652C30.8818 23.1757 31.3796 23.6771 31.9855 23.6771C32.5915 23.6771 33.0892 23.1757 33.0892 22.5652C33.0892 22.5216 33.0892 22.478 33.0676 22.4126C33.0027 22.9577 32.5482 23.3719 31.9855 23.3719Z" fill="#020202"/>
<path d="M34.193 21.1702C34.3723 21.1702 34.5176 21.0238 34.5176 20.8431C34.5176 20.6625 34.3723 20.5161 34.193 20.5161C34.0137 20.5161 33.8684 20.6625 33.8684 20.8431C33.8684 21.0238 34.0137 21.1702 34.193 21.1702Z" fill="#595B5B"/>
<path d="M32.2454 22.5653C32.2454 22.718 32.1155 22.827 31.9857 22.827C31.8342 22.827 31.726 22.6962 31.726 22.5653C31.726 22.4127 31.8558 22.3037 31.9857 22.3037C32.1371 22.3037 32.2454 22.4127 32.2454 22.5653Z" fill="#595B5B"/>
<path d="M39.8629 18.1177C36.6168 18.1177 33.9766 20.7776 33.9766 24.0479C33.9766 27.3182 36.6168 29.9781 39.8629 29.9781C43.1091 29.9781 45.7493 27.3182 45.7493 24.0479C45.7493 20.7776 43.1091 18.1177 39.8629 18.1177ZM39.8629 28.2121C37.5906 28.2121 35.7295 26.3589 35.7295 24.0479C35.7295 21.7587 37.569 19.8837 39.8629 19.8837C42.1353 19.8837 43.9964 21.7369 43.9964 24.0479C43.9964 26.3371 42.1353 28.2121 39.8629 28.2121Z" fill="#333333"/>
<path d="M44.9269 21.0391C45.2082 21.7367 45.3597 22.4998 45.3597 23.2847C45.3597 26.5551 42.7195 29.2149 39.4734 29.2149C37.3092 29.2149 35.4265 28.0376 34.3877 26.2934C35.275 28.4519 37.3742 29.978 39.8413 29.978C43.0874 29.978 45.7276 27.3181 45.7276 24.0478C45.7493 22.9577 45.4463 21.9112 44.9269 21.0391Z" fill="#606060"/>
<path d="M40.813 26.2909C42.0442 25.7616 42.6163 24.327 42.0908 23.0867C41.5654 21.8464 40.1415 21.2701 38.9103 21.7994C37.6792 22.3287 37.1071 23.7633 37.6325 25.0036C38.1579 26.2439 39.5819 26.8203 40.813 26.2909Z" fill="#A3A3A3"/>
<path d="M5.75654 18.3794C2.57529 18.3794 0 20.9957 0 24.1788C0 27.3838 2.57529 29.9782 5.75654 29.9782C8.93778 29.9782 11.5131 27.3838 11.5131 24.1788C11.5131 20.9957 8.93778 18.3794 5.75654 18.3794ZM5.75654 28.2559C3.5275 28.2559 1.73129 26.4463 1.73129 24.2006C1.73129 21.955 3.5275 20.1454 5.75654 20.1454C7.98557 20.1454 9.78178 21.955 9.78178 24.2006C9.78178 26.4463 7.98557 28.2559 5.75654 28.2559Z" fill="#333333"/>
<path d="M10.5824 21.0176C10.9287 21.7589 11.1018 22.5873 11.1018 23.4376C11.1018 26.6426 8.5265 29.2371 5.34526 29.2371C3.33263 29.2371 1.53642 28.1905 0.519287 26.599C1.42821 28.583 3.4192 29.9783 5.75644 29.9783C8.93768 29.9783 11.513 27.3839 11.513 24.1789C11.513 23.0234 11.1667 21.9333 10.5824 21.0176Z" fill="#606060"/>
<path d="M5.75659 26.5552C7.05936 26.5552 8.11547 25.4912 8.11547 24.1787C8.11547 22.8662 7.05936 21.8022 5.75659 21.8022C4.45381 21.8022 3.39771 22.8662 3.39771 24.1787C3.39771 25.4912 4.45381 26.5552 5.75659 26.5552Z" fill="#ABABAB"/>
<path d="M7.70435 14.1714L7.14168 14.4112C5.10741 15.2615 3.37612 16.6569 2.14258 18.4446C2.14258 18.5537 2.22914 18.6627 2.35899 18.6627C2.85674 18.6409 3.7873 18.6191 4.71787 18.5973C6.62229 18.5319 8.44015 19.2731 9.78189 20.6249L11.8811 22.7397C12.8982 23.7644 14.2832 24.3531 15.7332 24.3531H16.2309L7.70435 14.1714Z" fill="#878787"/>
<path d="M7.31467 15.7197C7.31467 15.7197 6.49231 15.7197 5.36697 16.3302C4.34983 16.8753 2.57526 18.336 2.229 18.6412C2.27229 18.6848 2.31557 18.6848 2.38049 18.6848C2.89988 18.663 3.91701 18.6412 4.9125 18.6194C6.68708 18.5758 8.41837 19.2517 9.67355 20.5162C9.69519 20.538 9.71683 20.5598 9.71683 20.5598L11.3399 20.9959L7.31467 15.7197Z" fill="#969696"/>
<path d="M7.31467 15.7197C7.31467 15.7197 6.49231 15.7197 5.36697 16.3302C4.34983 16.8753 2.57526 18.336 2.229 18.6412C2.27229 18.6848 2.31557 18.6848 2.38049 18.6848C2.77003 18.6848 3.41927 18.663 4.11178 18.6412C4.76102 18.1398 5.56174 17.5511 6.12441 17.2459C7.09826 16.7226 7.8557 16.6572 8.02883 16.6354L7.31467 15.7197Z" fill="#969696"/>
<path d="M7.70435 14.1714L7.14168 14.4112C5.10741 15.2615 3.37612 16.6569 2.14258 18.4446C2.14258 18.4882 2.14258 18.51 2.16422 18.5537C2.51048 18.1394 3.35448 17.2019 4.34997 16.4824C5.34546 15.763 6.53573 15.2397 7.07675 14.9999C7.2066 14.9563 7.33645 15.0435 7.35809 15.1743C7.37973 15.4141 7.46629 15.7412 7.76927 16.0464C8.3103 16.6132 13.7855 23.9606 13.8071 23.9824C14.4131 24.2223 15.0623 24.3313 15.7332 24.3313H16.2309L7.70435 14.1714Z" fill="#727272"/>
<path d="M39.2569 11.1628L44.797 15.8285C45.5112 16.439 45.2298 17.5945 44.3426 17.8125L32.1586 20.7776C31.0549 21.0392 30.2325 21.9549 30.0594 23.0669L29.9079 24.0262C29.7781 24.8547 29.0856 25.4651 28.2632 25.4651H16.3822C16.0143 25.4651 15.6681 25.2907 15.43 25.0073L8.13697 15.6977C7.55266 14.9564 7.53102 13.9099 8.07205 13.1468L14.0666 4.44767H13.3092C12.7249 4.44767 12.3137 3.90262 12.4436 3.33576L13.0928 0.784884C13.2226 0.305233 13.6338 0 14.0883 0H14.8674C15.1703 0 15.4517 0.130814 15.6681 0.348837L17.8106 2.65988C18.2001 3.07413 18.2867 3.7064 18.0486 4.22965L14.9106 10.7049C13.7853 13.0378 13.8286 15.8067 15.0621 18.0959L15.8845 19.6003C16.1009 19.9927 16.4904 20.2326 16.9233 20.2326H22.1604C23.5022 20.2326 24.5626 19.1424 24.5626 17.8125V12.3619C24.5626 12.3619 36.4003 9.26599 37.5256 9.85465C38.6293 10.4433 39.2569 11.1628 39.2569 11.1628Z" fill="#727272"/>
<path d="M24.5627 17.7907C24.5627 19.1424 23.4806 20.2108 22.1605 20.2108H20.9269C20.9053 20.2326 20.8837 20.2326 20.8837 20.2326H23.9783C24.3895 20.2326 24.7791 20.3416 25.1037 20.5596L28.9342 23.0233L27.4626 21.5843C26.3805 20.516 25.7746 19.077 25.7746 17.5509V16.9404C25.7746 15.3706 26.4887 13.8663 27.7223 12.907L28.9342 11.9477C28.9342 11.9477 28.9558 11.6424 28.9558 11.25C26.532 11.8169 24.541 12.3401 24.541 12.3401V17.7907H24.5627Z" fill="#878787"/>
<path d="M44.8188 15.8286L40.7935 12.4275C40.0144 12.1004 39.1704 11.817 38.2831 11.6208C32.9811 10.4217 28.0685 12.2967 27.2895 15.785C26.7917 17.9871 28.0902 20.3199 30.4491 22.0205C30.817 21.3882 31.4445 20.9304 32.1803 20.756L44.3643 17.8126C45.2516 17.5946 45.5329 16.4391 44.8188 15.8286Z" fill="#969696"/>
<path d="M18.1353 3.24855C18.0703 3.03052 17.9621 2.8125 17.8107 2.65988L15.6682 0.348837C15.4734 0.130814 15.1704 0 14.8675 0H14.0884C13.6339 0 13.2227 0.305233 13.1145 0.763081L12.4869 3.24855H18.1353Z" fill="#878787"/>
<path d="M17.8106 2.65988L15.6681 0.348837C15.4733 0.130814 15.1704 0 14.8674 0H14.0883C13.6555 0 13.266 0.28343 13.1361 0.675872H14.5861C14.8025 0.675872 15.0189 0.763081 15.1704 0.915698L17.486 3.24855H18.1352C18.0703 3.03052 17.9621 2.8343 17.8106 2.65988Z" fill="#969696"/>
<path d="M14.4131 6.19175L11.4699 11.6859C10.7341 13.0813 10.7557 14.7383 11.5565 16.1118L14.9758 21.9766C15.6683 23.154 16.9018 23.8734 18.2652 23.8734H27.6142C27.8306 23.8734 27.9388 23.6118 27.7873 23.4592L25.7531 21.3662C25.2986 20.9083 24.671 20.6467 24.0218 20.6467H16.8802C16.1011 20.6467 15.387 20.167 15.084 19.4258L14.0236 16.8313C13.2445 14.8909 13.2878 12.7106 14.1534 10.8138L15.9929 6.78041L15.084 6.03913C14.8676 5.88651 14.5429 5.95192 14.4131 6.19175Z" fill="#969696"/>
<path d="M18.2651 23.8517H27.3327L25.991 22.4999C25.5365 22.0421 24.9089 21.7805 24.2597 21.7805H17.1181C16.339 21.7805 15.6249 21.3008 15.3219 20.5595L14.2831 17.965C14.0234 17.3546 13.8719 16.7223 13.7854 16.0682C13.2876 14.3459 13.4175 12.4709 14.1749 10.8139L15.6898 7.47813L15.2353 7.10749C15.0622 6.97668 14.8025 7.02028 14.716 7.2165L11.7078 12.7979C11.2967 13.561 11.1235 14.4331 11.1885 15.2834C11.275 15.5668 11.4049 15.8284 11.5563 16.09L14.9756 21.9549C15.6682 23.1322 16.9233 23.8517 18.2651 23.8517Z" fill="#878787"/>
<path d="M17.2263 4.38237L16.6853 5.40708C16.642 5.49429 16.5554 5.51609 16.4689 5.47248L14.5212 4.53499C14.4563 4.49138 14.348 4.53499 14.3048 4.60039C14.2615 4.6876 14.2831 4.79661 14.3697 4.84022C14.9324 5.12365 16.7719 6.01754 16.7719 6.06115C16.7719 6.10475 16.0361 7.95795 15.3652 9.68033L18.0054 4.20795C18.092 4.01173 18.1569 3.79371 18.1353 3.57568H15.6032C15.5816 3.57568 15.5816 3.57568 15.56 3.57568L12.963 4.31696C13.0712 4.36057 13.2011 4.40417 13.3526 4.40417H14.0667C14.0884 4.40417 14.0884 4.40417 14.11 4.40417L15.3003 4.14254C15.3219 4.14254 15.3219 4.14254 15.3435 4.14254L17.0965 4.12074C17.2047 4.14254 17.2912 4.27336 17.2263 4.38237Z" fill="#606060"/>
<path d="M38.9973 13.3432C34.6258 12.3621 30.6222 13.692 30.0379 16.3301C29.6917 17.8563 30.4707 19.4915 32.1155 20.7778L44.3643 17.8127C44.7972 17.7037 45.0785 17.3984 45.1867 17.0278C44.0614 15.3926 41.789 13.9755 38.9973 13.3432Z" fill="#878787"/>
<path d="M31.1849 18.4014C31.7692 15.7633 35.7295 14.7604 40.1443 15.4144C42.1353 15.6979 43.5636 16.2865 44.7755 17.2458C44.927 17.115 45.1001 17.2458 45.1651 17.0496C44.0614 15.4144 41.7891 13.9755 38.9757 13.3432C34.6042 12.3621 30.6006 13.692 30.0163 16.3301C29.7566 17.5075 30.1461 18.9682 31.2282 19.9493C31.12 19.4915 31.0767 18.8592 31.1849 18.4014Z" fill="#878787"/>
<path d="M44.256 16.7661C44.256 16.7661 41.8106 14.0408 36.8981 14.1934C30.2759 14.3897 30.1677 18.3577 30.1677 18.3577C30.1677 18.3577 29.4752 16.6789 31.2065 14.7821C32.9594 12.8853 37.1794 12.8853 39.8413 13.801C42.5248 14.6949 44.256 16.7661 44.256 16.7661Z" fill="#969696"/>
<path d="M31.2282 19.949L27.2679 15.981C26.8783 18.1394 28.1551 20.385 30.4491 22.042C30.817 21.4097 31.4446 20.9519 32.1804 20.7775L32.2669 20.7557C31.6826 20.3414 31.5095 20.2106 31.2282 19.949Z" fill="#969696"/>
<path d="M24.5627 15.9811L24.3246 14.2806C24.2164 13.4957 23.762 12.7762 23.0911 12.362L22.7665 12.1657L24.7575 11.8169L24.5627 15.9811Z" fill="#727272"/>
<path d="M38.9995 13.3431C34.6295 12.3623 30.6274 13.6918 30.0433 16.329C29.9784 16.6341 30 17.2661 30.0216 17.5712C30 16.4161 30.649 14.3892 34.0238 13.7572C36.7496 13.2341 38.9562 13.6482 40.9681 14.4328C42.3094 14.9559 43.4992 15.9802 44.1483 16.6123C44.3862 16.852 44.2997 17.2661 43.9752 17.3533L32.2282 20.7532L44.3646 17.811C44.7973 17.702 45.0785 17.3969 45.1867 17.0264C44.0617 15.3918 41.7902 13.9751 38.9995 13.3431Z" fill="#969696"/>
<path d="M38.8241 11.2718L24.1298 12.5146C22.9612 12.6236 21.9657 11.6861 21.9657 10.5087C21.9657 9.39683 22.853 8.50293 23.9567 8.50293H38.7159C39.4734 8.50293 40.101 9.1134 40.101 9.89828C40.101 10.6178 39.5383 11.2064 38.8241 11.2718Z" fill="#4F4F4F"/>
<path d="M24.2164 10.1163H38.9756C39.3652 10.1163 39.6898 10.2689 39.9495 10.5305C40.036 10.3343 40.101 10.1163 40.101 9.89828C40.101 9.1352 39.495 8.50293 38.7159 8.50293H23.9567C22.853 8.50293 21.9657 9.39683 21.9657 10.5087C21.9657 10.923 22.0955 11.2936 22.2903 11.5989C22.5067 10.7486 23.2858 10.1163 24.2164 10.1163Z" fill="#757575"/>
<path d="M23.9567 9.157H38.7159C39.3652 9.157 39.9062 9.61485 40.0577 10.2253C40.0793 10.1163 40.101 10.0073 40.101 9.89828C40.101 9.1352 39.495 8.50293 38.7159 8.50293H23.9567C22.853 8.50293 21.9657 9.39683 21.9657 10.5087C21.9657 10.6178 21.9873 10.7268 21.9873 10.8358C22.1388 9.89828 22.9612 9.157 23.9567 9.157Z" fill="#AAAAAA"/>
<path d="M15.4517 2.57272L17.248 1.87505C17.486 1.78784 17.7457 1.89685 17.8539 2.13667L18.0487 2.59452C18.092 2.70353 18.092 2.83435 18.027 2.94336L17.7024 3.48842C17.6159 3.64103 17.4211 3.72824 17.248 3.66284L15.4517 2.98696C15.2786 2.89975 15.2786 2.63813 15.4517 2.57272Z" fill="#333333"/>
<path d="M17.183 3.16139H18.3733C18.6113 3.16139 18.8061 2.96517 18.8061 2.72535C18.8061 2.48552 18.6113 2.2893 18.3733 2.2893H17.2696C17.2696 2.2893 16.9233 2.22389 16.7718 2.35471C16.642 2.50732 16.642 2.96517 16.7718 3.11779C16.9233 3.27041 17.183 3.16139 17.183 3.16139Z" fill="#333333"/>
<path d="M16.7935 2.48552C16.9233 2.33291 17.2912 2.42012 17.2912 2.42012H18.3949C18.6113 2.42012 18.7845 2.57273 18.8278 2.79076C18.8278 2.76895 18.8278 2.74715 18.8278 2.72535C18.8278 2.48552 18.633 2.2893 18.3949 2.2893H17.2912C17.2912 2.2893 16.945 2.22389 16.7935 2.35471C16.7286 2.44192 16.6853 2.61634 16.7069 2.79076C16.7069 2.65994 16.7286 2.55093 16.7935 2.48552Z" fill="#4F4E4D"/>
<path d="M33.8683 25.1597L35.816 22.6306C35.9026 22.4998 36.0324 22.4126 36.1839 22.3908L42.1785 20.7992C42.8277 20.6248 43.477 21.1045 43.5203 21.7803L43.6068 23.1757C43.6285 23.6771 43.3255 24.135 42.8494 24.2876L36.6817 26.4024C36.4869 26.4678 36.2705 26.4896 36.0541 26.4678L33.8467 26.119V25.1597H33.8683Z" fill="#595B5B"/>
<path d="M43.542 21.8024C43.542 21.6498 43.4987 21.519 43.4338 21.3882L43.5203 22.7835C43.542 23.285 43.239 23.7428 42.7629 23.8954L36.5952 26.0103C36.4004 26.0757 36.184 26.0975 35.9676 26.0757L33.8684 25.7486V26.1411L36.0758 26.4899C36.2922 26.5335 36.5086 26.5117 36.7034 26.4245L42.8711 24.3097C43.3472 24.1571 43.6502 23.6992 43.6286 23.1978L43.542 21.8024Z" fill="#3D3D3D"/>
<path d="M34.8422 23.9387L36.7466 25.116C37.0928 25.3341 37.5257 25.3777 37.9368 25.2469L42.1785 23.7861C42.6763 23.6117 42.9792 23.132 42.9576 22.6088L42.8927 21.6713C42.871 21.366 42.5897 21.1698 42.3084 21.2352L35.7511 22.7614L34.8422 23.9387Z" fill="#7A7C7C"/>
<path d="M37.4175 22.827L41.7025 21.6933C41.8107 21.6715 41.9189 21.7587 41.8973 21.8895L41.8323 22.1729C41.8107 22.2383 41.7674 22.2819 41.7241 22.2819L37.569 23.3503C37.3743 23.3939 37.2011 23.2412 37.2228 23.045C37.2228 22.9578 37.3093 22.8488 37.4175 22.827Z" fill="#B5B5B5"/>
<path d="M41.8323 21.7368C41.8323 21.7586 41.8323 21.7586 41.8323 21.7804L41.7674 22.0639C41.7458 22.1293 41.7025 22.1729 41.6592 22.1729L37.5041 23.2412C37.3959 23.263 37.2877 23.2194 37.2228 23.154C37.2444 23.3066 37.3959 23.4156 37.569 23.372L41.7241 22.3037C41.7891 22.2819 41.8323 22.2383 41.8323 22.1947L41.8973 21.9112C41.8973 21.824 41.8756 21.7804 41.8323 21.7368Z" fill="#E2DCDC"/>
<path d="M37.4824 23.9388L41.7673 22.8051C41.8755 22.7833 41.9837 22.8705 41.9621 23.0013L41.8972 23.2847C41.8755 23.3502 41.8322 23.3938 41.789 23.3938L37.6339 24.4621C37.4391 24.5057 37.266 24.3531 37.2876 24.1568C37.3092 24.0478 37.3742 23.9606 37.4824 23.9388Z" fill="#B5B5B5"/>
<path d="M41.1831 12.7764L44.5158 15.5671H45.1434C45.5113 15.5671 45.6845 15.0874 45.4031 14.8476L43.1092 12.9072C43.001 12.82 42.8711 12.7764 42.7413 12.7764H41.1831Z" fill="#303030"/>
<path d="M43.0442 12.8854C42.9577 12.82 42.8278 12.7764 42.7196 12.7764H41.1831L43.0659 14.3461H43.6935C44.0614 14.3461 44.2345 13.8665 43.9532 13.6267L43.0442 12.8854Z" fill="#595B5B"/>
<path d="M45.3814 14.8476L43.0875 12.9072C42.9793 12.82 42.8494 12.7764 42.7196 12.7764H42.0487L45.2516 15.5453C45.5329 15.4581 45.6411 15.0656 45.3814 14.8476Z" fill="#464646"/>
<path d="M42.7196 12.7764H42.0487L44.5158 14.913C44.7755 14.8258 44.8837 14.477 44.6673 14.2589L43.0658 12.929C42.9793 12.8418 42.8494 12.7764 42.7196 12.7764Z" fill="#8B8B8B"/>
<path d="M41.8972 22.8271C41.8972 22.849 41.8972 22.849 41.8972 22.8708L41.8322 23.1542C41.8106 23.2196 41.7673 23.2632 41.724 23.2632L37.5689 24.3315C37.4607 24.3533 37.3525 24.3097 37.2876 24.2443C37.3092 24.3969 37.4607 24.5059 37.6339 24.4623L41.7889 23.394C41.8539 23.3722 41.8972 23.3286 41.8972 23.285L41.9621 23.0016C41.9837 22.9362 41.9404 22.8708 41.8972 22.8271Z" fill="#E2DCDC"/>
</svg>
