<svg viewBox="0 0 56 30" fill="none" xmlns="http://www.w3.org/2000/svg">
<path d="M44.5592 14.1519C40.1339 14.1519 36.5526 17.6962 36.5526 22.0759C36.5526 26.4556 40.1339 29.9999 44.5592 29.9999C48.9846 29.9999 52.5659 26.4556 52.5659 22.0759C52.5659 17.6962 48.9846 14.1519 44.5592 14.1519ZM44.5592 28.0253C41.2338 28.0253 38.5479 25.367 38.5479 22.0759C38.5479 18.7848 41.2338 16.1265 44.5592 16.1265C47.8847 16.1265 50.5706 18.7848 50.5706 22.0759C50.5706 25.367 47.8847 28.0253 44.5592 28.0253Z" fill="#333333"/>
<path d="M9.0026 14.1519C4.57721 14.1519 0.995972 17.6962 0.995972 22.0759C0.995972 26.4556 4.57721 29.9999 9.0026 29.9999C13.428 29.9999 17.0092 26.4556 17.0092 22.0759C17.0092 17.6962 13.428 14.1519 9.0026 14.1519ZM9.0026 28.0253C5.67717 28.0253 2.99123 25.367 2.99123 22.0759C2.99123 18.7848 5.67717 16.1265 9.0026 16.1265C12.328 16.1265 15.014 18.7848 15.014 22.0759C15.014 25.367 12.328 28.0253 9.0026 28.0253Z" fill="#333333"/>
<path d="M9.0026 14.1519C4.57721 14.1519 0.995972 17.6962 0.995972 22.0759C0.995972 26.4556 4.57721 29.9999 9.0026 29.9999C13.428 29.9999 17.0092 26.4556 17.0092 22.0759C17.0092 17.6962 13.428 14.1519 9.0026 14.1519ZM9.0026 29.1139C5.08882 29.1139 1.89128 25.9746 1.89128 22.0759C1.89128 18.1772 5.06324 15.0379 9.0026 15.0379C12.942 15.0379 16.1139 18.1772 16.1139 22.0759C16.1139 25.9746 12.9164 29.1139 9.0026 29.1139Z" fill="#4F4E4D"/>
<path d="M44.5592 14.1519C40.1339 14.1519 36.5526 17.6962 36.5526 22.0759C36.5526 26.4556 40.1339 29.9999 44.5592 29.9999C48.9846 29.9999 52.5659 26.4556 52.5659 22.0759C52.5659 17.6962 48.9846 14.1519 44.5592 14.1519ZM44.5592 29.1139C40.6455 29.1139 37.4479 25.9746 37.4479 22.0759C37.4479 18.2025 40.6199 15.0379 44.5592 15.0379C48.4986 15.0379 51.6706 18.1772 51.6706 22.0759C51.6706 25.9746 48.4986 29.1139 44.5592 29.1139Z" fill="#606060"/>
<path d="M9.00265 24.5315C10.373 24.5315 11.4839 23.4321 11.4839 22.0758C11.4839 20.7196 10.373 19.6201 9.00265 19.6201C7.63227 19.6201 6.52136 20.7196 6.52136 22.0758C6.52136 23.4321 7.63227 24.5315 9.00265 24.5315Z" fill="#333333"/>
<path d="M44.5592 24.5315C45.9295 24.5315 47.0405 23.4321 47.0405 22.0758C47.0405 20.7196 45.9295 19.6201 44.5592 19.6201C43.1888 19.6201 42.0779 20.7196 42.0779 22.0758C42.0779 23.4321 43.1888 24.5315 44.5592 24.5315Z" fill="#333333"/>
<path d="M25.7066 21.8481H22.7393V24.4811H25.7066V21.8481Z" fill="#494949"/>
<path d="M33.969 21.1899L45.8127 21.6963L37.0898 23.038L33.969 21.1899Z" fill="#4A4A4C"/>
<path d="M36.1945 22.4558L44.0476 21.6203L33.969 21.1899L36.1945 22.4558Z" fill="#6F6F72"/>
<path d="M34.8899 21.7469L44.0476 21.6203L33.969 21.1899L34.8899 21.7469Z" fill="#848388"/>
<path d="M32.5876 20.3799L37.8827 23.3166L30.3621 24.1773C30.3621 24.1773 30.3877 21.8229 30.1575 21.3672C29.9272 20.9115 29.3389 19.9495 29.9017 19.8989C30.4389 19.8736 32.5876 20.3799 32.5876 20.3799Z" fill="#2B2B2B"/>
<path d="M32.5877 20.3799C32.5877 20.3799 30.4389 19.8736 29.9017 19.8989C29.825 19.8989 29.7738 19.9242 29.7227 19.9748C30.5412 20.1014 31.6412 20.3799 31.6412 20.3799L36.9363 23.3166L30.3622 24.0508C30.3622 24.1267 30.3622 24.152 30.3622 24.152L37.8828 23.2913L32.5877 20.3799Z" fill="#3A3A3A"/>
<path d="M31.0272 22L30.8226 20.8607C30.7458 20.481 30.4133 20.1772 30.004 20.1772H26.8065C26.7042 20.1519 26.6274 20.1519 26.5251 20.1519C25.5019 20.1519 24.6577 20.9873 24.6577 22C24.6577 22.3797 24.7856 22.7594 24.9903 23.0379H24.4787C24.1461 23.0379 23.8647 23.3164 23.8647 23.6455V24.5822L24.6577 24.9113L30.5924 24.0759L31.0016 22.3544C31.0272 22.2531 31.0528 22.1265 31.0272 22Z" fill="#7C7E82"/>
<path d="M31.0272 22L30.8226 20.8607C30.7458 20.481 30.4133 20.1772 30.004 20.1772H26.8065C26.7042 20.1519 26.6274 20.1519 26.5251 20.1519C25.5019 20.1519 24.6577 20.9873 24.6577 22C24.6577 22.3797 24.7856 22.7594 24.9903 23.0379H24.4787C24.1461 23.0379 23.8647 23.3164 23.8647 23.6455V24.5822L24.6577 24.9113L30.5924 24.0759L31.0016 22.3544C31.0272 22.2531 31.0528 22.1265 31.0272 22Z" fill="#8A8A8A"/>
<path d="M31.0017 22.3545C31.0272 22.2279 31.0272 22.1267 31.0017 22.0001L30.8738 21.3672L29.9273 23.0128C29.8506 23.1647 29.6715 23.2659 29.4924 23.2659H27.8553C27.8553 23.2659 27.5227 23.7976 26.5763 23.8735C25.6554 23.9495 24.9391 23.0634 24.9391 23.0634H24.4275C24.095 23.0634 23.8136 23.3419 23.8136 23.671V24.6077L24.6066 24.9368L24.7601 24.9115L24.4019 23.7469C24.3764 23.6963 24.4275 23.671 24.4531 23.671H25.1694C25.1949 23.671 25.2205 23.6963 25.2205 23.7216L25.7065 24.7849L30.5412 24.1014L31.0017 22.3545Z" fill="#4C4C4C"/>
<path d="M24.4531 23.1899H24.9647C24.9647 23.1899 25.681 24.076 26.6274 24C27.5739 23.9241 27.932 23.3924 27.932 23.3924H29.5947C29.7738 23.3924 29.9529 23.2912 30.0296 23.1393L30.9249 21.595L30.8738 21.3418L29.9273 22.9874C29.8506 23.1393 29.6715 23.2405 29.4924 23.2405H27.8553C27.8553 23.2405 27.5227 23.7722 26.5763 23.8481C25.6554 23.9241 24.9391 23.038 24.9391 23.038H24.4275C24.1206 23.038 23.8648 23.2658 23.8136 23.5443C23.9671 23.3418 24.1973 23.1899 24.4531 23.1899Z" fill="#343435"/>
<path d="M24.402 23.9241L24.709 24.9368H24.7857L24.4532 23.8481C24.4276 23.8481 24.3764 23.8735 24.402 23.9241Z" fill="#343435"/>
<path d="M28.9297 23.8483C28.9297 24.1015 28.725 24.2787 28.4948 24.2787C28.239 24.2787 28.0599 24.0762 28.0599 23.8483C28.0599 23.5952 28.2646 23.418 28.4948 23.418C28.725 23.418 28.9297 23.5952 28.9297 23.8483Z" fill="#494949"/>
<path d="M26.4996 23.2659C25.8856 23.2659 25.374 22.7596 25.374 22.152C25.374 21.5444 25.8856 21.0381 26.4996 21.0381C27.1135 21.0381 27.6251 21.5444 27.6251 22.152C27.5995 22.7596 27.1135 23.2659 26.4996 23.2659ZM26.4996 21.2912C26.0135 21.2912 25.6298 21.671 25.6298 22.152C25.6298 22.633 26.0135 23.0128 26.4996 23.0128C26.9856 23.0128 27.3693 22.633 27.3693 22.152C27.3437 21.671 26.96 21.2912 26.4996 21.2912Z" fill="#565656"/>
<path d="M30.004 20.1772H26.8065C26.7041 20.1519 26.6274 20.1519 26.5251 20.1519C25.5019 20.1519 24.6577 20.9873 24.6577 22C24.6577 22.3797 24.7856 22.7594 24.9903 23.0379C24.9903 23.0126 24.5042 21.8481 25.2716 21.0379C26.0391 20.2278 27.4971 20.3797 27.9832 21.1645C28.4692 21.9746 28.0599 22.8101 28.0599 22.8101C28.0599 22.8101 28.418 22.5063 28.4692 21.7468C28.4692 21.6962 28.4692 21.6202 28.4692 21.6202C28.4692 21.6202 28.8785 21.5696 29.1087 21.8227C29.3389 22.0759 28.9296 22.4556 28.9296 22.4556C28.9296 22.4556 29.3133 22.2278 29.3645 21.8481C29.4156 21.4177 28.3669 21.2405 28.3669 21.2405C28.3669 21.2405 28.2645 21.0126 28.0343 20.7594C27.7529 20.481 27.4204 20.3544 27.4204 20.3544H30.5156C30.3877 20.2531 30.2086 20.1772 30.004 20.1772Z" fill="#BABABA"/>
<path d="M32.7922 23.9746L32.8946 24.6582C32.9201 24.9114 33.1504 25.0633 33.4062 25.0379L50.7496 23.4177C50.7752 23.4177 50.8008 23.4177 50.8008 23.3924L52.31 22.8607C52.4123 22.8101 52.4891 22.7088 52.4635 22.5822L52.2844 21.3164C52.2588 21.1898 52.1821 21.1139 52.0542 21.1139L50.3915 20.9873C50.3659 20.9873 50.3659 20.9873 50.3403 20.9873L33.1759 23.3924C32.9457 23.4936 32.7667 23.7215 32.7922 23.9746Z" fill="#828282"/>
<path d="M33.4062 24.6076L50.7497 22.9874C50.7752 22.9874 50.8008 22.9874 50.8008 22.9621L52.3101 22.4304C52.3612 22.4051 52.4124 22.3798 52.438 22.3292L52.2845 21.3418C52.2589 21.2152 52.1822 21.1393 52.0543 21.1393L50.3915 21.0127C50.366 21.0127 50.3659 21.0127 50.3404 21.0127L33.176 23.4178C32.9969 23.4431 32.869 23.5443 32.8179 23.6962L32.8946 24.1773C32.9458 24.4557 33.176 24.6329 33.4062 24.6076Z" fill="#C1C1C1"/>
<path d="M32.7923 23.9747C32.7923 23.9241 32.7923 23.8735 32.7923 23.8481L24.8624 24.7089C24.6578 24.7342 24.4276 24.6836 24.2485 24.5317L23.5322 24L22.9695 25.0633L23.7369 25.6456C23.8648 25.7469 24.0439 25.7975 24.1973 25.7722L32.9458 24.8355C32.9202 24.7849 32.8946 24.7342 32.8946 24.6583L32.7923 23.9747Z" fill="#686868"/>
<path d="M32.7922 23.8482L52.31 21.3672L52.4123 22.1014L32.9713 24.3798L32.7922 23.9748" fill="#F9F9F9"/>
<path d="M32.7923 23.9747C32.7923 23.9241 32.7923 23.8735 32.7923 23.8481L31.8458 23.9494L31.9737 24.9368L32.9458 24.8355C32.9202 24.7849 32.8946 24.7342 32.8946 24.6583L32.7923 23.9747Z" fill="#252427"/>
<path d="M27.2157 22.1521C27.2157 22.5572 26.8832 22.8863 26.4739 22.8863C26.0646 22.8863 25.7321 22.5572 25.7321 22.1521C25.7321 21.7471 26.0646 21.418 26.4739 21.418C26.9088 21.418 27.2157 21.7471 27.2157 22.1521Z" fill="#BABABA"/>
<path d="M26.4995 21.5952C26.8832 21.5952 27.1646 21.8737 27.2157 22.2281C27.2157 22.2028 27.2157 22.1775 27.2157 22.1521C27.2157 21.7471 26.8832 21.418 26.4739 21.418C26.0646 21.418 25.7321 21.7471 25.7321 22.1521C25.7321 22.1775 25.7321 22.2028 25.7321 22.2281C25.8088 21.8737 26.1158 21.5952 26.4995 21.5952Z" fill="#FCFCFC"/>
<path d="M28.9808 22.0507C28.9808 22.1519 28.9041 22.2532 28.7762 22.2532C28.6739 22.2532 28.5715 22.1773 28.5715 22.0507C28.5715 21.9494 28.6483 21.8481 28.7762 21.8481C28.8785 21.8481 28.9808 21.9241 28.9808 22.0507Z" fill="#5E5E5E"/>
<path d="M29.3646 21.8986C29.4157 21.4682 28.3669 21.291 28.3669 21.291L28.4181 21.4429C28.4181 21.4429 28.8018 21.4682 29.0576 21.6201C29.3134 21.772 29.3902 21.9239 29.2878 22.1518C29.339 22.0758 29.3646 21.9746 29.3646 21.8986Z" fill="#FCFCFC"/>
<path d="M29.9529 23.0128L30.8994 21.3673L30.8482 21.0635L29.9273 22.7597C29.7994 22.9875 29.5436 23.1394 29.2878 23.1394H27.9832L27.9065 23.266H29.5436C29.6971 23.2407 29.8762 23.1647 29.9529 23.0128Z" fill="#BABABA"/>
<path d="M9.13054 23.4432L7.8771 22.9116C7.77478 22.8863 7.7492 22.7597 7.80036 22.6837L8.20965 21.823L9.6933 20.3799L11.842 15.8989L12.942 16.5318L9.36076 23.3673C9.3096 23.4432 9.20728 23.4939 9.13054 23.4432Z" fill="#A3A3A3"/>
<path d="M11.8421 15.9238L9.69332 20.4048L8.20966 21.8479L7.80038 22.7086C7.74922 22.7846 7.80038 22.9112 7.87712 22.9365L8.82359 23.3416L12.2514 16.1517L11.8421 15.9238Z" fill="#CECECE"/>
<path d="M8.82355 22.4052C8.82355 22.6077 8.67007 22.7596 8.46542 22.7596C8.26078 22.7596 8.1073 22.6077 8.1073 22.4052C8.1073 22.2027 8.26078 22.0508 8.46542 22.0508C8.67007 22.0508 8.82355 22.2027 8.82355 22.4052Z" fill="#8E8E8E"/>
<path d="M11.842 15.9238L9.66764 20.3795L9.64205 20.4048L8.82349 21.9745L9.00255 22.5061L12.2001 16.1264L11.842 15.9238Z" fill="white"/>
<path d="M4.3726 14.3038L6.93062 13.7975C7.62129 13.6709 8.33754 13.6456 9.02821 13.7722L10.8956 14.0759C11.1258 14.1013 11.3049 14.2785 11.356 14.5063L11.6374 15.7468C11.6886 15.9241 11.7909 16.0759 11.9699 16.1519L13.3513 16.8354C13.4792 16.8861 13.6071 16.9114 13.735 16.8861L14.5791 16.7342C14.8094 16.6835 15.0652 16.7848 15.1931 16.9873C15.4489 17.3924 15.8837 18.1772 16.1395 19.1899C16.5232 20.7089 16.6 21.8987 16.6 21.8987L18.5697 24.1013C18.7487 24.3038 19.1068 24.1266 19.0301 23.8481L18.6464 22.5316L18.672 20.5063L21.716 25.1392C22.023 25.6203 22.7392 25.5696 22.9695 25.0633L23.5322 24.0253L23.8648 21.7215C23.9671 20.962 24.6322 20.4051 25.3996 20.4051H35.9898C36.7317 20.4051 37.4223 19.9241 37.627 19.2152C38.0363 17.8734 39.1106 15.7975 41.8733 14.8861C46.0685 13.519 49.4195 15.2405 50.5962 17.0633C51.2613 18.1013 51.5682 18.7595 51.7217 19.1139C51.824 19.3924 52.0287 19.5949 52.2845 19.7215L54.6379 20.8354C54.8169 20.9114 55.0216 20.7595 54.9704 20.557C54.6379 19.2405 53.5123 15.5949 51.0566 13.3924C48.0126 10.6835 42.6151 10.4304 39.8013 10.5316H30.4133C29.8506 10.5316 29.4157 10.9873 29.4157 11.519V14.0759C29.4157 14.9873 28.6227 15.6962 27.7018 15.5949C26.3461 15.443 24.3508 14.8861 22.5602 13.0127C19.8998 10.2278 20.5649 7.59494 20.8463 6.83544C20.8975 6.70886 20.8719 6.55696 20.8207 6.43038L20.7184 6.32911L22.2276 3.26582C22.3044 3.08861 22.33 2.91139 22.2532 2.73418L21.7928 1.36709C21.7416 1.24051 21.6393 1.11392 21.5114 1.06329L19.3371 0.101266C19.2347 0.0253165 19.1068 0 18.9789 0H16.8302C16.7279 0 16.6 0.0506329 16.5232 0.126582L16.2674 0.35443C16.0884 0.506329 16.0116 0.708861 16.0116 0.936709V2.91139C16.0116 3.13924 16.1139 3.36709 16.293 3.51899L16.8046 3.92405L16.779 4.40506L13.1978 11.9494C13.1978 11.9494 7.28875 10.0253 4.11679 13.8734C3.96331 14.0759 4.14237 14.3544 4.3726 14.3038Z" fill="#878787"/>
<path d="M51.0566 13.3927C48.0125 10.6838 42.6151 10.4307 39.8013 10.5319H37.5758C37.499 10.5319 37.4223 10.6079 37.4223 10.6838C37.4479 10.9876 37.5246 11.2155 37.5758 11.342C37.6014 11.3674 37.6269 11.418 37.6525 11.418L38.8292 11.8737C39.3408 12.0762 39.9036 12.1775 40.4408 12.1775C40.5943 12.1775 40.6454 12.4053 40.4919 12.456L34.5061 14.8357C34.4294 14.861 34.3782 14.9623 34.4294 15.0383C34.6852 15.494 35.5294 17.0129 36.0921 17.8484C36.7572 18.861 36.834 17.5952 38.8548 15.6458C40.8756 13.6965 45.3522 12.7091 48.7799 14.7091C52.2077 16.7091 52.7449 19.9243 52.7449 19.9243L54.382 20.7091C54.689 20.861 54.996 20.5826 54.9192 20.2534C54.4843 18.7598 53.3588 15.4433 51.0566 13.3927Z" fill="#969696"/>
<path d="M43.5104 11.6205C45.0452 11.6964 48.7288 11.9243 51.0822 14.4306C53.4356 16.9622 53.3844 20.2027 53.3844 20.2027L54.6634 20.8103C54.8425 20.8863 55.0471 20.7344 54.996 20.5318C54.6634 19.2154 53.5379 15.5698 51.0822 13.3673C48.0381 10.6584 42.6407 10.4053 39.8269 10.5065H37.1154L37.3967 10.7597C38.3944 11.5951 39.699 11.9496 40.978 11.7724C41.8221 11.6964 42.8198 11.5951 43.5104 11.6205Z" fill="#878787"/>
<path d="M54.996 20.5568C54.6635 19.2404 53.5379 15.5948 51.0822 13.3923C49.3684 11.8733 46.9126 11.1138 44.5848 10.7847C46.7847 11.1391 49.087 11.8986 50.6985 13.3416C53.1542 15.5442 54.2798 19.1897 54.6123 20.5062C54.6379 20.6075 54.5867 20.7087 54.51 20.7594L54.6635 20.8353C54.8425 20.9113 55.0216 20.7593 54.996 20.5568Z" fill="#878787"/>
<path d="M27.7018 15.6203C26.346 15.4684 24.3507 14.9114 22.5601 13.038C22.2787 12.7595 22.0485 12.4557 21.8439 12.1772C22.4578 13.114 23.3787 14.481 24.0182 14.8861C25.0158 15.5443 26.1925 16.2026 27.9064 16.4051C28.6738 16.5064 28.9552 16.5064 29.5947 16.1266C29.6715 16.076 29.7482 16 29.8249 15.8988C30.3621 15.2659 30.2342 14.3038 29.6203 13.7722L29.4156 13.595V14.076C29.4156 15.0127 28.6227 15.7216 27.7018 15.6203Z" fill="#878787"/>
<path d="M31.411 19.1391L30.4901 17.9746C30.3622 17.8227 30.2599 17.6201 30.2343 17.4176C30.2087 17.1391 30.2599 16.8859 30.5157 16.7087C31.2319 16.2277 32.5109 15.4682 33.79 15.0378C34.9667 14.6581 36.5526 14.4809 37.627 14.4049C38.3177 14.3543 38.8804 14.9366 38.8037 15.6201C38.7525 15.9746 37.7805 17.4935 37.7293 17.5695C37.5758 17.772 37.0642 18.4809 37.0642 18.4809L31.411 19.1391Z" fill="#969696"/>
<path d="M8.20963 12.5315C11.0746 12.2277 12.9676 13.0631 12.9676 13.0631L11.663 15.8986C11.7141 16.0251 11.8165 16.1264 11.9444 16.2024L13.0955 16.7593L15.2186 13.0378L14.7326 10.5568L17.4441 4.8859L16.7023 4.60742L13.1978 11.9492C13.1978 11.9492 7.28874 10.0251 4.11678 13.8732C3.9633 14.0758 4.11678 14.3543 4.37258 14.3036C4.37258 14.3036 5.34463 12.8353 8.20963 12.5315Z" fill="#969696"/>
<path d="M13.1978 12.3294L16.7023 4.96227L17.2906 5.19011L17.4441 4.861L16.7023 4.58252L13.1978 11.9496C13.1978 11.9496 7.28873 10.0256 4.11677 13.8737C4.01445 14.0002 4.04003 14.1521 4.14235 14.2281C7.31431 10.4053 13.1978 12.3294 13.1978 12.3294Z" fill="#878787"/>
<path d="M12.8397 13.3672L11.663 15.8735C11.6885 15.9241 11.7141 15.9748 11.7653 16.0254L12.9676 13.4178C12.9931 13.4431 12.9164 13.4178 12.8397 13.3672Z" fill="#878787"/>
<path d="M14.707 10.9118L15.1675 13.1143L15.2186 13.0131L14.7838 10.8105L14.707 10.9118Z" fill="#878787"/>
<path d="M19.2347 1.03797V1.87342C19.2347 1.97468 19.3115 2.05063 19.4138 2.05063C19.5161 2.05063 19.5928 1.97468 19.5928 1.87342V1.36709H21.8183V1.34177C21.7672 1.21519 21.6648 1.08861 21.5369 1.03797L19.3626 0.0759494C19.2347 0.0253165 19.1068 0 18.9789 0H16.8302C16.7278 0 16.5999 0.0506329 16.5232 0.126582L16.2674 0.35443C16.0883 0.506329 16.0116 0.708861 16.0116 0.936709V2.91139C16.0116 3.13924 16.1139 3.36709 16.293 3.51899L16.8046 3.92405V4.3038L17.6487 4.58228L17.6999 4.02532C17.7255 3.82279 17.5464 3.62025 17.3418 3.62025H17.086V1.03797H19.2347Z" fill="#969696"/>
<path d="M16.5232 0.303797C16.5999 0.253165 16.7278 0.202532 16.8302 0.202532H18.9789C19.1068 0.202532 19.2347 0.227848 19.337 0.278481L21.5114 1.24051C21.5881 1.26582 21.6648 1.31646 21.716 1.39241H21.8183V1.36709C21.7672 1.24051 21.6648 1.11392 21.5369 1.06329L19.3626 0.101266C19.2347 0.0253165 19.1068 0 18.9789 0H16.8302C16.7278 0 16.5999 0.0506329 16.5232 0.126582L16.2674 0.35443C16.0883 0.506329 16.0116 0.708861 16.0116 0.936709V1.13924C16.0116 0.911392 16.1139 0.708861 16.2674 0.556962L16.5232 0.303797Z" fill="#969696"/>
<path d="M16.8046 4.12646V4.30368L16.8302 4.12646H16.8046Z" fill="#969696"/>
<path d="M17.3417 3.64551H17.0859V3.84804H17.3417C17.5208 3.84804 17.6487 3.97462 17.6999 4.12652V4.05057C17.7254 3.82272 17.5464 3.64551 17.3417 3.64551Z" fill="#969696"/>
<path d="M16.6255 3.77223C16.6511 3.77223 16.6767 3.74691 16.6767 3.74691V0.0253906C16.6255 0.0507071 16.5488 0.0760235 16.5232 0.126656L16.2674 0.354504C16.0883 0.506403 16.0116 0.708935 16.0116 0.936783V2.91147C16.0116 3.13931 16.1139 3.36716 16.293 3.51906L16.6255 3.77223Z" fill="#F9F9F9"/>
<path d="M16.7023 0.0253906C16.6512 0.0507071 16.5744 0.0760235 16.5488 0.126656L16.293 0.354505C16.114 0.506403 16.0372 0.708935 16.0372 0.936783V1.69628L16.7023 1.08868V0.0253906Z" fill="#828282"/>
<path d="M16.3186 3.51886L16.5488 3.69607C16.6511 3.74671 16.7023 3.74671 16.7023 3.74671V2.98721L16.0372 2.45557V2.91126C16.0116 3.13911 16.1139 3.36696 16.3186 3.51886Z" fill="#828282"/>
<path d="M17.8022 4.93691L20.8463 6.55716C20.8463 6.53185 20.8207 6.48121 20.7951 6.4559L20.7184 6.32931L22.2276 3.26602C22.3044 3.08881 22.33 2.91159 22.2532 2.73438L20.5905 5.77235L17.8022 4.93691Z" fill="#878787"/>
<path d="M20.3603 23.0633C20.258 22.4557 20.0022 21.6202 19.4394 20.3797C17.9302 16.9873 18.5697 14.1772 17.2651 12.5569C15.9861 10.962 15.1163 10.3291 15.1163 10.3291L15.5256 13.4177L13.8629 16.5823L15.3977 14.9114C15.3977 14.9114 16.907 16.405 17.4186 18.6582C17.9302 20.9114 17.8534 23.3164 17.8534 23.3164L18.5441 24.0759C18.7232 24.2785 19.0813 24.1012 19.0046 23.8228L18.6464 22.5316L18.672 20.5063L20.3603 23.0633Z" fill="#878787"/>
<path d="M29.4156 11.5444V12.6836C29.4156 12.6836 31.59 12.6077 34.4805 12.4305C36.6549 12.3039 37.2688 11.8229 37.2688 11.8229L37.0642 10.5317H30.4133C29.8505 10.5317 29.4156 10.9874 29.4156 11.5444Z" fill="#878787"/>
<path d="M43.3826 14.5065L42.7942 12.3546C42.6919 12.0002 42.3849 11.747 42.0524 11.7217C42.078 11.6457 42.078 11.5698 42.078 11.4938C42.078 10.9622 41.6431 10.5571 41.1315 10.5571C40.5943 10.5571 40.185 10.9875 40.185 11.4938C40.185 11.747 40.2873 12.0002 40.4664 12.1521C40.2106 12.3546 40.0827 12.709 40.1594 13.0381L40.7734 15.3419C41.1059 15.1647 41.4896 15.0128 41.8989 14.8609C42.4105 14.709 42.8965 14.5824 43.3826 14.5065Z" fill="#878787"/>
<path d="M43.3058 16.0255L41.6175 16.4812L40.6966 13.1647C40.5687 12.709 40.8501 12.228 41.3105 12.1014C41.7709 11.9748 42.257 12.2533 42.3849 12.709L43.3058 16.0255Z" fill="#DBDBDB"/>
<path d="M42.9477 16.1265L41.9501 16.3796L40.978 12.7088C40.9013 12.4303 41.0803 12.1518 41.3361 12.0758C41.6175 11.9999 41.8989 12.1771 41.9756 12.4303L42.9477 16.1265Z" fill="white"/>
<path d="M43.0729 16.0814L41.8118 16.4121L42.4996 18.9818L43.7608 18.6512L43.0729 16.0814Z" fill="#DBDBDB"/>
<path d="M42.8184 16.2815L42.1508 16.4565L42.8059 18.9039L43.4735 18.7288L42.8184 16.2815Z" fill="white"/>
<path d="M41.771 11.4937C41.771 11.8482 41.4896 12.1267 41.1315 12.1267C40.7733 12.1267 40.4919 11.8482 40.4919 11.4937C40.4919 11.1393 40.7733 10.8608 41.1315 10.8608C41.4896 10.8608 41.771 11.1393 41.771 11.4937Z" fill="#BABABA"/>
<path d="M41.771 11.4937C41.771 11.8482 41.4896 12.1267 41.1315 12.1267C40.7733 12.1267 40.4919 11.8482 40.4919 11.4937C40.4919 11.1393 40.7733 10.8608 41.1315 10.8608C41.4896 10.8608 41.771 11.1393 41.771 11.4937Z" fill="#BABABA"/>
<path d="M40.5431 11.6456C40.5431 11.2911 40.8245 11.0127 41.1826 11.0127C41.4384 11.0127 41.6686 11.1646 41.7454 11.3671C41.6942 11.0633 41.4384 10.8354 41.1314 10.8354C40.7733 10.8354 40.4919 11.1139 40.4919 11.4684C40.4919 11.5696 40.5175 11.6456 40.5431 11.7215C40.5431 11.7215 40.5431 11.6709 40.5431 11.6456Z" fill="white"/>
<path d="M44.022 20.7849L43.4848 18.709L42.7686 18.8862L43.4336 20.9621C43.3825 21.0381 43.3313 21.1394 43.3313 21.2659C43.3313 21.5444 43.5615 21.7723 43.8429 21.7723C44.1243 21.7723 44.3545 21.5444 44.3545 21.2659C44.3545 21.0381 44.2266 20.8609 44.022 20.7849Z" fill="#BABABA"/>
<path d="M43.5616 18.9875L43.5104 18.709L42.7942 18.8862L42.8709 19.1647L43.5616 18.9875Z" fill="#939393"/>
<path d="M43.8685 21.5443C44.0239 21.5443 44.1499 21.4196 44.1499 21.2658C44.1499 21.112 44.0239 20.9873 43.8685 20.9873C43.7131 20.9873 43.5872 21.112 43.5872 21.2658C43.5872 21.4196 43.7131 21.5443 43.8685 21.5443Z" fill="#7C7C7C"/>
<path d="M22.5601 13.0381C19.8998 10.2532 20.5649 7.62033 20.8463 6.86084C20.8974 6.73426 20.8718 6.58236 20.8207 6.45578L17.6231 4.86084L14.8605 10.633C14.8605 10.633 15.3465 13.1646 16.3697 15.7216C16.9836 17.2912 17.9813 19.3419 18.6719 20.6836V20.5064L21.716 25.1393C22.023 25.6203 22.7392 25.5697 22.9694 25.0634L23.5322 24.0254L23.8647 21.7216C23.9671 20.9621 24.6321 20.4051 25.3996 20.4051H26.4739V15.4178C25.2972 15.0887 23.8903 14.4051 22.5601 13.0381Z" fill="#CCCBC8"/>
<path d="M30.7714 17.8735L31.5388 19.3671C31.6923 19.6456 31.9737 19.8481 32.3062 19.8481H36.1689C36.6037 19.8481 36.9874 19.595 37.1409 19.1899L38.1897 16.5823C38.4967 15.7975 37.8828 14.9621 37.0386 15.038L35.427 15.1646C34.1736 15.2659 32.9713 15.6203 31.8714 16.2532L31.1807 16.633C30.7203 16.8861 30.5668 17.4431 30.7714 17.8735Z" fill="#CCCBC8"/>
<path d="M31.3854 17.5949L32.076 17.2151C33.176 16.6075 34.3783 16.2278 35.6317 16.1265L37.2432 15.9999C37.6525 15.9746 38.0107 16.1518 38.2409 16.4303C38.4199 15.6961 37.8316 14.9873 37.0386 15.0632L35.427 15.1898C34.1736 15.2911 32.9713 15.6455 31.8714 16.2784L31.1807 16.6582C30.7458 16.9113 30.5668 17.443 30.797 17.8987L30.9505 18.2025C31.0017 17.924 31.1551 17.7214 31.3854 17.5949Z" fill="#EAEAEA"/>
<path d="M31.2319 17.0382L31.9226 16.6585C33.0225 16.0509 34.2248 15.6711 35.4782 15.5699L37.0898 15.4433C37.6525 15.3927 38.0874 15.7471 38.2665 16.2028C38.2921 15.5699 37.7293 14.9876 37.0386 15.0382L35.4271 15.1648C34.1736 15.2661 32.9713 15.6205 31.8714 16.2534L31.1807 16.6332C30.7714 16.861 30.5924 17.3673 30.7714 17.7977C30.7714 17.4939 30.9249 17.1901 31.2319 17.0382Z" fill="white"/>
<path d="M37.6014 16.7342C37.6014 16.9368 37.4223 17.114 37.2177 17.114C37.013 17.114 36.834 16.9368 36.834 16.7342C36.834 16.5317 37.013 16.3545 37.2177 16.3545C37.4479 16.3545 37.6014 16.5064 37.6014 16.7342Z" fill="#A8A7A5"/>
<path d="M16.3697 15.7216C16.9836 17.2912 17.9813 19.3418 18.6719 20.6836V20.5064L21.716 25.1393C21.8695 25.3672 22.0997 25.4684 22.3299 25.4684V24.1773C22.3299 24.1773 21.2811 22.6583 19.337 18.8608C18.0068 16.2532 17.4441 13.7216 17.2139 12.4305C17.1115 11.8482 17.1883 11.2406 17.3929 10.6836L18.9022 6.73426C18.9789 6.55704 18.9277 6.32919 18.7998 6.17729L17.6231 4.86084L14.8605 10.633C14.8605 10.633 15.3465 13.1393 16.3697 15.7216Z" fill="#EAEAEA"/>
<path d="M22.5602 13.0381C19.8998 10.2533 20.5649 7.62036 20.8463 6.86086C20.8975 6.73428 20.8719 6.58238 20.8207 6.4558L20.3091 6.20264C20.3091 6.20264 19.2603 7.92416 20.1556 10.5064C21.0509 13.0887 23.5067 14.633 23.5067 14.633L17.8022 11.1647V12.4052L26.4995 17.3672V15.4178C25.2973 15.0887 23.8904 14.4052 22.5602 13.0381Z" fill="#EAEAEA"/>
<path d="M20.616 6.65822C20.3346 7.46834 19.6184 10.3291 22.4834 13.3164C23.8136 14.7342 25.2716 15.443 26.4995 15.8228V15.3924C25.2972 15.0633 23.8903 14.405 22.5601 13.0126C19.8998 10.2278 20.5649 7.59492 20.8462 6.83543C20.8974 6.70885 20.8718 6.55695 20.8207 6.43037L20.6416 6.3291C20.6416 6.481 20.6416 6.58227 20.616 6.65822Z" fill="white"/>
<path d="M23.4554 15.0633C23.4554 15.0633 22.5857 14.5063 21.6392 13.519L17.7766 11.1646V11.5949L23.4554 15.0633Z" fill="white"/>
<path d="M26.4995 19.5191C26.4995 19.5191 21.1788 19.6203 21.0509 19.6203C20.9486 19.6203 18.2115 15.6457 17.5464 12.8608C17.5464 12.8608 17.6999 15.2153 19.4905 18.6583C21.3067 22.1013 23.1229 24.7596 23.1229 24.7596L23.5066 24.0254L23.8391 21.7216C23.9415 20.9621 24.6066 20.4051 25.374 20.4051H26.4483V19.5191H26.4995Z" fill="#A8A7A5"/>
<path d="M19.5417 5.84814C19.5417 5.84814 18.7231 7.82283 18.3394 8.93675C17.9557 10.0507 17.8022 10.7595 17.8022 10.7595L20.1556 12.2279C20.1556 12.2279 19.3115 11.1393 19.2347 9.3165C19.158 7.49371 19.9254 6.02536 19.9254 6.02536L19.5417 5.84814Z" fill="#A8A7A5"/>
<path d="M18.6719 20.6834V20.5062L21.5369 24.886C21.5369 24.886 20.0277 22.1771 18.3906 18.0505C17.0604 14.7341 16.779 12.7594 16.7278 12.1265C16.7023 11.9746 16.6255 11.848 16.4976 11.7467L14.8605 10.6328C14.8605 10.6328 15.3465 13.1645 16.3697 15.7214C17.0092 17.291 17.9813 19.3164 18.6719 20.6834Z" fill="white"/>
<path d="M37.9084 11.5188L39.1362 10.9112C39.4432 10.7593 39.6222 10.4555 39.6222 10.1264V9.13903C39.6222 8.55675 39.1106 8.07574 38.5223 8.10105L29.5692 8.58207C29.3645 8.58207 29.1855 8.70865 29.0831 8.88586L28.1622 10.4302C27.8041 11.0631 28.239 11.8479 28.9808 11.8479H36.5014C36.9619 11.8732 37.4479 11.7466 37.9084 11.5188Z" fill="#3F3F3F"/>
<path d="M39.4432 8.55695C39.2386 8.27847 38.906 8.07594 38.5223 8.10126L29.5692 8.58227C29.3646 8.58227 29.1855 8.70885 29.0832 8.88607L28.1623 10.4304C28.0856 10.557 28.06 10.6835 28.0344 10.8101C28.0088 11.038 28.2135 11.2152 28.4437 11.2152L34.7109 10.8608C34.8899 10.8608 35.069 10.7848 35.2225 10.6329C35.555 10.3038 36.2968 9.67088 37.3712 9.21518C38.7781 8.60759 39.4176 8.55695 39.4432 8.55695Z" fill="#676767"/>
<path d="M28.3669 10.0758L34.4295 9.89862C34.8132 9.89862 35.1713 9.77204 35.4783 9.54419C36.0666 9.11381 37.1666 8.37963 38.2409 8.12646L29.5436 8.60748C29.339 8.60748 29.1599 8.73406 29.0576 8.91128L28.3669 10.0758Z" fill="#878787"/>
<path d="M39.6222 10.1265V9.13917C39.6222 9.01259 39.5966 8.91132 39.571 8.81006C39.2385 8.88601 37.499 9.3417 36.3223 10.2278C35.427 10.886 35.0177 11.5189 34.8643 11.8733H36.6037C37.013 11.8733 37.4223 11.7721 37.806 11.5949L39.1362 10.9366C39.4431 10.7594 39.6222 10.4556 39.6222 10.1265Z" fill="#3F3F3F"/>
<path d="M42.6406 10.7089H48.9334C49.0357 10.7089 49.1636 10.7342 49.2659 10.7849L49.9822 11.1393C50.0845 11.1899 50.238 11.1899 50.3403 11.114L51.031 10.6836H53.4867C53.7425 10.6836 53.9471 10.8861 53.9471 11.1393V13.1899C53.9471 13.519 53.6657 13.7975 53.3332 13.7975H51.4147L48.0636 11.7469C47.7567 11.5444 47.3986 11.4431 47.0404 11.4431H43.6894C43.2034 11.4431 42.7941 11.1393 42.6406 10.7089Z" fill="#050505"/>
<path d="M51.0055 10.709L50.3148 11.1394C50.2125 11.2153 50.0846 11.2153 49.9567 11.1647L49.2404 10.8103C49.1381 10.7596 49.0358 10.7343 48.9079 10.7343H42.6151C42.6407 10.8356 42.6919 10.9115 42.743 10.9875C42.7942 10.9875 42.8453 11.0128 42.8453 11.0128H48.9846L49.8799 11.4685L49.0869 12.0508L49.4962 12.3039L51.8496 10.7343H51.0055V10.709Z" fill="#5F5D60"/>
<path d="M53.4867 10.709H52.4124V13.8482H53.3332C53.6658 13.8482 53.9472 13.5697 53.9472 13.2406V11.19C53.9472 10.9115 53.7425 10.709 53.4867 10.709Z" fill="#393939"/>
<path d="M53.4867 10.709H52.4124V11.0381H53.0774C53.3332 11.0381 53.5379 11.2406 53.5379 11.4938V13.5444C53.5379 13.6457 53.5123 13.7216 53.4611 13.7976C53.7425 13.747 53.9472 13.4938 53.9472 13.2153V11.1647C53.9472 10.9115 53.7425 10.709 53.4867 10.709Z" fill="#4B4B4B"/>
<path d="M21.2811 1.62012L22.9438 1.79733C23.1485 1.82265 23.3276 1.99986 23.3276 2.2024C23.3276 2.45556 23.0973 2.63278 22.8671 2.60746L21.2811 2.43024V1.62012Z" fill="#3F3F3F"/>
<path d="M23.3276 2.27842C23.3276 2.2531 23.3276 2.2531 23.3276 2.22779C23.3276 2.02525 23.1741 1.84804 22.9438 1.82272L21.2811 1.64551V1.77209L22.9438 1.94931C23.1485 1.94931 23.302 2.1012 23.3276 2.27842Z" fill="#535353"/>
<path d="M21.4858 1.41759C21.0253 1.29101 20.6161 1.64544 20.6161 2.07582H19.337C19.1836 2.07582 19.0557 2.2024 19.0557 2.3543V2.37962C19.0557 2.53152 19.1836 2.6581 19.337 2.6581H20.9998C21.1021 2.70873 21.2044 2.73405 21.3067 2.73405C21.7416 2.73405 22.0741 2.32899 21.9718 1.87329C21.8951 1.67076 21.716 1.49354 21.4858 1.41759Z" fill="#535353"/>
<path d="M50.238 10.7339H40.4408C40.1594 10.7339 39.9292 10.5061 39.9292 10.2276V9.08836C39.9292 8.80988 40.1594 8.58203 40.4408 8.58203H50.238C50.5194 8.58203 50.7497 8.80988 50.7497 9.08836V10.2276C50.7241 10.5061 50.4939 10.7339 50.238 10.7339Z" fill="#676767"/>
<path d="M39.9548 9.51874C39.9548 9.24026 40.185 9.01241 40.4664 9.01241H50.2636C50.4939 9.01241 50.6985 9.18962 50.7497 9.39216V9.08836C50.7497 8.80988 50.5194 8.58203 50.238 8.58203H40.4408C40.1594 8.58203 39.9292 8.80988 39.9292 9.08836V10.2276C39.9292 10.2782 39.9292 10.3035 39.9548 10.3289V9.51874Z" fill="#878787"/>
<path d="M50.238 10.2026H40.4408C40.1594 10.2026 39.9292 9.97477 39.9292 9.69629V10.2279C39.9292 10.5064 40.1594 10.7343 40.4408 10.7343H50.238C50.5194 10.7343 50.7497 10.5064 50.7497 10.2279V9.69629C50.7241 9.97477 50.4938 10.2026 50.238 10.2026Z" fill="#3F3F3F"/>
</svg>
