<svg viewBox="0 0 53 31" fill="none" xmlns="http://www.w3.org/2000/svg">
<path d="M28.039 13.5371H30.2983L32.3911 19.9298C32.3911 19.9298 32.7241 20.8156 31.963 21.2227C31.2258 21.6297 29.7513 22.4677 29.7513 22.4677C29.7513 22.4677 28.1104 21.8691 28.5622 20.672C29.0141 19.4749 30.2745 17.7031 29.6562 16.4581C29.0379 15.237 26.8023 14.6624 26.8975 14.1596C27.0164 13.6808 28.039 13.5371 28.039 13.5371Z" fill="#333333"/>
<path d="M8.58531 12.7227C3.85269 12.7227 0 16.5774 0 21.3659C0 26.1544 3.85269 30.0092 8.58531 30.0092C13.3417 30.0092 17.1706 26.1305 17.1706 21.3659C17.1944 16.5774 13.3417 12.7227 8.58531 12.7227ZM8.58531 27.2318C5.37473 27.2318 2.75871 24.5981 2.75871 21.3659C2.75871 18.1337 5.37473 15.5 8.58531 15.5C11.7959 15.5 14.4119 18.1337 14.4119 21.3659C14.4119 24.5981 11.8197 27.2318 8.58531 27.2318Z" fill="#333333"/>
<path d="M8.58531 28.9559C4.01916 28.9559 0.285384 25.3645 0 20.8394C0 21.007 0 21.1985 0 21.3661C0 26.1546 3.85269 30.0093 8.58531 30.0093C13.3417 30.0093 17.1706 26.1307 17.1706 21.3661C17.1706 21.1985 17.1706 21.007 17.1468 20.8394C16.909 25.3645 13.1752 28.9559 8.58531 28.9559Z" fill="#606060"/>
<path d="M43.4735 12.7227C38.7171 12.7227 34.8882 16.6013 34.8882 21.3659C34.8882 26.1544 38.7409 30.0092 43.4735 30.0092C48.2061 30.0092 52.0588 26.1305 52.0588 21.3659C52.0588 16.5774 48.2061 12.7227 43.4735 12.7227ZM43.4735 27.2318C40.2629 27.2318 37.6469 24.5981 37.6469 21.3659C37.6469 18.1337 40.2629 15.5 43.4735 15.5C46.6841 15.5 49.3001 18.1337 49.3001 21.3659C49.3001 24.5981 46.6841 27.2318 43.4735 27.2318Z" fill="#333333"/>
<path d="M43.4735 29.0277C38.8835 29.0277 35.1498 25.4123 34.8882 20.8872C34.8882 21.0548 34.8644 21.2224 34.8644 21.39C34.8644 26.1785 38.7171 30.0333 43.4497 30.0333C48.1823 30.0333 52.035 26.1546 52.035 21.39C52.035 21.2224 52.035 21.0548 52.0112 20.8872C51.7734 25.4123 48.0396 29.0277 43.4735 29.0277Z" fill="#606060"/>
<path d="M46.1181 21.7865C46.355 20.3114 45.3593 18.9223 43.8941 18.6838C42.4289 18.4453 41.0491 19.4478 40.8122 20.9229C40.5753 22.398 41.5711 23.7871 43.0363 24.0255C44.5015 24.264 45.8813 23.2616 46.1181 21.7865Z" fill="#A3A3A3"/>
<path d="M44.9481 21.3663C44.9481 22.2043 44.2822 22.8747 43.4498 22.8747C42.6174 22.8747 41.9515 22.2043 41.9515 21.3663C41.9515 20.5283 42.6174 19.8579 43.4498 19.8579C44.2822 19.8579 44.9481 20.5283 44.9481 21.3663Z" fill="#333333"/>
<path d="M8.58535 24.5743C10.3454 24.5743 11.7721 23.1379 11.7721 21.366C11.7721 19.5941 10.3454 18.1577 8.58535 18.1577C6.82533 18.1577 5.39856 19.5941 5.39856 21.366C5.39856 23.1379 6.82533 24.5743 8.58535 24.5743Z" fill="#A3A3A3"/>
<path d="M9.83221 22.6244C10.5195 21.9325 10.5195 20.8107 9.83221 20.1188C9.14494 19.4269 8.03067 19.4269 7.3434 20.1188C6.65614 20.8107 6.65614 21.9325 7.3434 22.6244C8.03067 23.3163 9.14494 23.3163 9.83221 22.6244Z" fill="#1B1E23"/>
<path d="M33.5089 19.1394L32.7954 17.8944L35.9584 14.2312L37.6469 13.5848C37.9561 13.4651 38.1939 13.2256 38.3128 12.8904L38.6933 11.7651L43.7589 10.5441C43.9492 10.4962 44.0681 10.3286 44.0681 10.137C44.0681 9.87367 43.8303 9.68213 43.5687 9.73002L37.6232 11.1426L25.97 11.5018L26.9688 12.3637H29.4897L31.1544 16.1706L30.988 16.41C30.4648 17.224 30.3934 18.2296 30.7739 19.1155L31.3447 20.4323C31.4398 20.6478 31.3685 20.8872 31.202 21.0309L29.9416 21.9886L29.4659 24.0716L33.6516 21.0548C33.818 20.9351 34.0321 20.8633 34.2461 20.8872L44.401 22.0365C44.734 22.0844 45.0194 21.821 45.0194 21.4619V21.3182C45.0194 21.0309 44.8053 20.7915 44.5199 20.7436L34.1748 19.5943C33.9369 19.5704 33.6753 19.4028 33.5089 19.1394ZM30.9642 12.244L36.22 12.0285C36.4578 12.0285 36.6005 12.3158 36.4341 12.5073L32.8905 16.3382C32.6765 16.5776 32.2722 16.5058 32.1533 16.2184L30.655 12.7707C30.5361 12.5073 30.7026 12.2679 30.9642 12.244Z" fill="#333333"/>
<path d="M44.5675 20.7678L34.2223 19.6185C33.9132 19.5946 33.6516 19.4031 33.5089 19.1397L32.7954 17.8947L32.6765 17.6074C32.6289 17.5116 32.6527 17.3919 32.7241 17.2961L37.8848 11.502L44.0443 9.99365C43.9729 9.80211 43.7827 9.6824 43.5687 9.73029L37.6232 11.1429L25.97 11.502L26.4694 11.8851L29.7513 11.7415L33.1284 19.834C33.2235 20.0495 33.4137 20.2171 33.6516 20.2411L45.0431 21.4861V21.3185C45.0669 21.0312 44.8529 20.7917 44.5675 20.7678ZM32.1533 16.1948L31.535 14.7822L30.6312 12.7231C30.6075 12.6752 30.6075 12.6273 30.6075 12.5794L30.2983 11.8372L37.1951 11.5499L36.4341 12.4597L32.8905 16.2905C32.6765 16.5778 32.2722 16.506 32.1533 16.1948Z" fill="#333333"/>
<path d="M31.2258 21.0308L30.8928 21.2702L32.6527 20.1209L31.1544 16.1465L30.9879 16.3859C30.4647 17.2 30.3934 18.2055 30.7739 19.0914L31.3447 20.4083C31.4874 20.6477 31.416 20.8871 31.2258 21.0308Z" fill="#333333"/>
<path d="M44.5675 20.7678L34.2223 19.6185C33.9132 19.5946 33.6516 19.403 33.5089 19.1397L33.0808 18.3975L33.7229 19.6904C33.7943 19.8101 33.8894 19.8819 34.0321 19.9058L44.9956 21.079C44.9242 20.9114 44.7578 20.7917 44.5675 20.7678Z" fill="#4F4E4D"/>
<path d="M36.4368 12.4835L32.8933 16.3143C32.7268 16.4819 32.489 16.5059 32.2987 16.3862L32.3938 16.458C32.5841 16.6017 32.8457 16.5777 32.9884 16.4101L37.4594 11.5737H37.1978L36.4368 12.4835Z" fill="#4F4E4D"/>
<path d="M32.2977 16.3867C32.2725 16.3613 32.2472 16.4121 32.2977 16.3867V16.3867Z" fill="#4F4E4D"/>
<path d="M11.8672 11.981L7.94315 20.7679C7.77668 21.127 7.94315 21.534 8.29988 21.6777C8.65662 21.8453 9.06091 21.6777 9.2036 21.3186L13.0563 12.6513C12.652 12.4119 12.2477 12.1964 11.8672 11.981Z" fill="#666666"/>
<path d="M29.4659 24.5984L30.3934 20.5281C30.5123 20.0493 30.5123 19.5465 30.441 19.0676C29.9891 16.0988 28.4195 13.3933 26.0175 11.5736L25.9462 11.5257L37.5993 11.1666L43.8302 9.68217C43.9016 9.65823 43.9491 9.5864 43.9016 9.51457C43.6875 9.17938 43.0216 8.34139 41.452 8.17379C39.4781 7.95831 38.9549 8.38927 38.9549 8.38927C38.9549 8.38927 38.3366 9.87371 35.2211 9.73005C33.9369 9.63428 31.9392 9.29909 31.0355 9.13149C30.7739 9.0836 30.5361 9.27515 30.5361 9.56246C30.5361 9.56246 29.014 7.47945 24.8046 6.47387C21.3087 5.63588 18.431 6.83301 17.5511 7.28791C17.3608 7.38369 17.123 7.40763 16.909 7.38368C16.4333 7.28791 15.5772 7.09637 14.7686 6.71329C13.5557 6.13867 12.985 5.27674 12.985 5.27674C12.985 5.27674 13.8411 4.79789 16.3382 4.79789H18.7402C19.5726 4.79789 20.2623 4.1275 20.2623 3.26557V2.64306C20.2623 1.03891 18.8353 -0.206101 17.2419 0.0572669C15.4107 0.320635 13.0801 1.11074 11.2251 3.02614C7.63401 6.78512 8.98958 9.89765 10.3452 11.023C11.7007 12.1483 14.5546 12.7947 15.9815 15.7875C16.8376 17.5832 18.2408 20.7436 19.2158 22.9942C19.9055 24.5505 21.4276 25.5561 23.1161 25.5561H28.2292C28.8238 25.58 29.3232 25.173 29.4659 24.5984Z" fill="#969696"/>
<path d="M30.6788 11.0231C30.6788 11.0231 23.1161 11.2626 19.8818 10.9753C18.9543 10.8795 16.6237 10.4964 16.1242 10.0415L15.8151 10.5204C15.8151 10.5204 18.0268 11.4302 21.0947 11.502C24.2815 11.5738 26.5883 11.502 26.5883 11.502L30.9642 11.3583C30.9166 11.2386 30.6788 11.0231 30.6788 11.0231Z" fill="#616161"/>
<path d="M41.4758 8.17377C39.7635 8.00617 39.1452 8.29348 39.0025 8.36531C38.9787 8.36531 38.9787 8.38925 38.9549 8.4132C38.8598 8.60474 38.1701 9.73003 35.6968 9.75398C35.6254 9.75398 35.5779 9.8258 35.5779 9.89763C35.6492 10.1131 35.6492 10.3047 35.6254 10.4723C35.6254 10.5441 35.673 10.592 35.7444 10.592C37.742 10.4004 38.3128 9.46667 38.3842 9.29907C38.3842 9.27513 38.4079 9.27513 38.4317 9.25118C38.5744 9.17936 39.1927 8.89205 40.9051 9.05964C41.8801 9.15541 42.5222 9.53849 42.9027 9.87369C42.9265 9.89763 42.9741 9.89763 42.9979 9.89763L43.8302 9.70609C43.9016 9.68215 43.9492 9.61032 43.9016 9.53849C43.7351 9.17936 43.0454 8.31743 41.4758 8.17377Z" fill="#878787"/>
<path d="M15.2443 8.55681C15.4583 8.41316 15.7199 8.2695 16.0053 8.1019C16.362 8.19767 16.695 8.2695 16.909 8.31739C17.123 8.36527 17.3609 8.31739 17.5511 8.22162C18.431 7.79065 21.3324 6.59352 24.8046 7.43151C29.014 8.4371 30.5361 10.5201 30.5361 10.5201C30.5361 10.2567 30.7739 10.0412 31.0355 10.0891C31.3209 10.137 31.7014 10.2088 32.1057 10.2807L32.1295 10.2567C32.4624 9.94548 32.5338 9.68211 32.4149 9.34692C31.8679 9.25115 31.3685 9.17932 31.0117 9.10749C30.7501 9.05961 30.5123 9.25115 30.5123 9.53846C30.5123 9.53846 28.9903 7.45546 24.7808 6.44987C21.3087 5.61188 18.4073 6.80901 17.5273 7.23997C17.3133 7.33574 17.0993 7.35969 16.8852 7.33574C16.6474 7.28786 16.3382 7.21603 15.9815 7.12026C15.6961 7.28786 15.4345 7.43151 15.2205 7.57517C14.84 7.83854 14.84 8.29344 15.0064 8.79624C15.0778 8.70047 15.1491 8.62864 15.2443 8.55681Z" fill="#878787"/>
<path d="M37.6232 11.1429L38.8361 10.8556L40.81 8.1261C39.383 8.07822 38.9788 8.38947 38.9788 8.38947C38.9788 8.38947 38.3604 9.87391 35.245 9.73025C33.9607 9.63448 31.9631 9.29929 31.0593 9.13169C30.7977 9.0838 30.5599 9.27534 30.5599 9.56266C30.5599 9.56266 30.5599 9.56265 30.5361 9.53871V11.4062L37.6232 11.1429Z" fill="#4F4F4F"/>
<path d="M31.0593 10.0654C31.9868 10.233 33.9845 10.5682 35.245 10.664C37.314 10.7598 38.2891 10.1133 38.6933 9.70631C39.0263 9.37111 39.4544 9.13169 39.93 9.0838C39.9776 9.0838 40.0489 9.0838 40.0965 9.0838L40.7862 8.1261C39.3592 8.07822 38.9549 8.38947 38.9549 8.38947C38.9549 8.38947 38.3366 9.87391 35.2212 9.73025C33.9369 9.63448 31.9392 9.29928 31.0355 9.13169C30.7739 9.0838 30.5361 9.27534 30.5361 9.56265C30.5361 9.56265 30.5361 9.56265 30.5123 9.53871V10.4964C30.5361 10.5204 30.5361 10.5204 30.5361 10.5204C30.5599 10.2091 30.7977 10.0176 31.0593 10.0654Z" fill="#757575"/>
<path d="M40.81 8.1261C39.3831 8.07822 38.9788 8.38947 38.9788 8.38947L40.81 8.1261Z" fill="#825B52"/>
<path d="M31.0593 9.34717C31.9868 9.51477 33.9845 9.84996 35.245 9.94573C38.3604 10.0894 38.9788 8.60495 38.9788 8.60495C38.9788 8.60495 39.3593 8.31764 40.6435 8.34158L40.81 8.1261C39.383 8.07822 38.9788 8.38947 38.9788 8.38947C38.9788 8.38947 38.3604 9.8739 35.245 9.73025C33.9607 9.63448 31.9631 9.29928 31.0593 9.13169C30.7977 9.0838 30.5599 9.27534 30.5599 9.56265C30.5599 9.56265 30.5599 9.56265 30.5361 9.53871V9.77813C30.5599 9.80208 30.5599 9.80208 30.5599 9.80208C30.5599 9.49082 30.7977 9.29928 31.0593 9.34717Z" fill="#A1A1A1"/>
<path d="M16.148 8.86827C16.362 7.59932 17.242 7.35989 17.3371 7.33595C17.1944 7.35989 17.0517 7.38383 16.909 7.33595C16.4334 7.24018 15.5772 7.04864 14.7686 6.66556C13.6747 6.16276 13.1039 5.3966 13.0088 5.25295C12.985 5.25295 12.9612 5.229 12.9374 5.229C12.6283 5.27689 10.9397 5.65997 10.8922 7.14441C10.8446 8.79644 14.6497 10.3767 16.909 10.8555C16.909 10.8794 15.9102 10.233 16.148 8.86827Z" fill="#4F4F4F"/>
<path d="M16.148 8.86839C16.362 7.59944 17.2419 7.36001 17.3371 7.33607C17.1944 7.36001 17.0517 7.38396 16.909 7.33607C16.695 7.28819 16.3858 7.2403 16.0528 7.14453C15.7437 7.28819 15.2442 7.67127 15.0778 8.60503C14.84 9.96975 15.815 10.5204 15.815 10.5204C15.7675 10.5204 15.7199 10.4965 15.6723 10.4965C16.1004 10.6162 16.5285 10.8077 16.909 10.8796C16.909 10.8796 15.9101 10.2331 16.148 8.86839Z" fill="#3B3B3B"/>
<path d="M20.2623 3.24163V2.64306C20.2623 1.03891 18.8354 -0.206101 17.242 0.0572669C15.4108 0.320635 13.0801 1.11074 11.2251 3.02614C10.9873 3.26557 10.7733 3.52894 10.583 3.76836H20.1672C20.2385 3.60076 20.2623 3.43317 20.2623 3.24163Z" fill="#D1D1D1"/>
<path d="M17.5749 1.03895C18.6927 0.871356 19.7391 1.44598 20.2385 2.35579C20.0958 0.871355 18.7402 -0.206058 17.242 0.0333668C15.4108 0.320677 13.0801 1.11078 11.2251 3.02618C10.9873 3.26561 10.7733 3.52898 10.583 3.7684H11.8197C13.6271 2.0206 15.8151 1.32626 17.5749 1.03895Z" fill="white"/>
<path d="M28.2292 25.5803C28.8238 25.5803 29.3232 25.1732 29.4659 24.5986L29.561 24.1677H23.2112C22.1172 24.1677 21.1422 23.5212 20.7141 22.5156L17.1706 14.447C16.909 13.8724 16.4809 13.3935 15.9101 13.1062C14.9588 12.6274 13.2703 11.7415 11.344 10.6641C9.48898 9.6106 9.01334 8.53318 8.91821 7.86279C8.94199 9.32329 9.63167 10.4486 10.3451 11.0232C11.7007 12.1485 14.5545 12.795 15.9815 15.7878C16.8376 17.5835 18.2408 20.7439 19.2158 22.9945C19.9055 24.5507 21.4276 25.5563 23.1161 25.5563H28.2292V25.5803Z" fill="#878787"/>
<path d="M30.4409 19.0675C30.0842 16.6014 28.9189 14.3269 27.1828 12.5791H17.337C17.9078 13.3453 18.8115 13.8002 19.7866 13.8002H24.0436C24.9473 13.8002 25.7796 14.303 26.2077 15.117L29.9653 22.3955L30.3934 20.528C30.4409 20.2886 30.4885 20.0492 30.4885 19.8098C30.5123 19.5464 30.4885 19.307 30.4409 19.0675Z" fill="#969696"/>
<path d="M10.583 3.76881C10.6781 3.64909 10.7733 3.52938 10.8922 3.40967C10.7733 3.52938 10.6781 3.64909 10.583 3.76881Z" fill="#878787"/>
<path d="M10.8922 3.40943C11.0111 3.28972 11.1062 3.17001 11.2252 3.05029C11.1062 3.14606 10.9873 3.28972 10.8922 3.40943Z" fill="#878787"/>
<path d="M9.41773 6.37828C10.0598 6.37828 10.6782 6.09097 11.13 5.63606C11.4154 5.34875 11.8197 4.98961 12.3905 4.63047C13.5558 3.88825 15.2919 3.79248 15.9102 3.79248H10.583C9.84581 4.7023 9.39395 5.58817 9.15613 6.40222H9.41773V6.37828Z" fill="#878787"/>
<path d="M30.441 19.0678C29.9892 16.0989 28.4195 13.3934 26.0176 11.5738L25.9462 11.5259H24.7809L18.5024 21.3663C18.764 21.9409 19.0019 22.4916 19.2159 22.9944C19.9056 24.5506 21.4276 25.5562 23.1161 25.5562H25.8986L30.3697 19.3551C30.3934 19.2833 30.4172 19.1635 30.441 19.0678Z" fill="#B6B7B7"/>
<path d="M23.2113 24.1676C22.1173 24.1676 21.1423 23.5212 20.7142 22.5156L19.5251 19.7861L18.5262 21.3663C18.5976 21.51 18.6452 21.6537 18.7165 21.7734C18.7641 21.917 18.8354 22.0367 18.883 22.1804C18.883 22.2043 18.9068 22.2043 18.9068 22.2283C18.9543 22.348 19.0019 22.4677 19.0732 22.5874C19.1208 22.7311 19.1921 22.8508 19.2397 22.9705C19.9294 24.5268 21.4514 25.5323 23.14 25.5323H25.9224L26.9451 24.1197H23.2113V24.1676Z" fill="#848484"/>
<path d="M30.441 19.0675C30.0843 16.6014 28.919 14.3269 27.1829 12.5791H24.115L23.3302 13.8002H24.0437C24.9474 13.8002 25.7797 14.303 26.2078 15.117L29.2281 20.959L30.3697 19.3788C30.3935 19.283 30.4172 19.1633 30.441 19.0675Z" fill="#E2E2E2"/>
<path d="M23.9247 11.5259L18.1694 20.6001L17.7651 19.6903L22.9496 11.5259H23.9247Z" fill="#B6B7B7"/>
<path d="M23.2588 12.5791H22.2837L21.4989 13.8002H22.474L23.2588 12.5791Z" fill="#E2E2E2"/>
<path d="M18.764 18.1099L17.7651 19.6901C17.884 19.9774 18.0267 20.2647 18.1456 20.552L18.1694 20.5759L19.1683 18.9957L18.764 18.1099Z" fill="#848484"/>
<path d="M12.557 12.3638L8.65671 21.1267C8.56158 21.3662 8.32376 21.5098 8.08594 21.5338C8.1335 21.6056 8.20485 21.6535 8.29998 21.6774C8.65671 21.845 9.061 21.6774 9.20369 21.3183L13.0564 12.6511C12.8899 12.5793 12.7234 12.4595 12.557 12.3638Z" fill="#A3A3A3"/>
<path d="M24.1863 22.5632C22.5691 22.5632 21.2611 21.2464 21.2611 19.6183C21.2611 17.9902 22.5691 16.6733 24.1863 16.6733C25.8035 16.6733 27.1115 17.9902 27.1115 19.6183C27.1353 21.2224 25.8035 22.5632 24.1863 22.5632ZM24.1863 17.1282C22.8307 17.1282 21.7367 18.2296 21.7367 19.5943C21.7367 20.959 22.8307 22.0604 24.1863 22.0604C25.5419 22.0604 26.6358 20.959 26.6358 19.5943C26.6596 18.2296 25.5419 17.1282 24.1863 17.1282Z" fill="#5B5B5B"/>
<path d="M24.2101 19.5704C24.2101 20.145 23.9723 20.552 23.4967 20.552C23.021 20.552 22.807 20.1211 22.807 19.5943C22.807 19.0437 23.0448 18.6366 23.5205 18.6366C23.9961 18.6127 24.2101 19.0676 24.2101 19.5704ZM23.2351 19.5943C23.2351 20.0253 23.3302 20.2168 23.4967 20.2168C23.6632 20.2168 23.7583 20.0014 23.7583 19.5704C23.7583 19.1634 23.6632 18.9479 23.4967 18.9479C23.354 18.9479 23.2351 19.1634 23.2351 19.5943Z" fill="#5B5B5B"/>
<path d="M24.9712 19.0437L24.6144 19.2113L24.5431 18.8761L25.0425 18.6367H25.3992V20.5042H24.9712V19.0437Z" fill="#5B5B5B"/>
<path d="M25.97 11.5258L26.1364 11.6694L37.6231 11.2863L43.854 9.80191C43.7589 9.75402 43.6638 9.73008 43.5449 9.75402L37.5994 11.1666L25.97 11.5258Z" fill="#4F4F4F"/>
<path d="M8.96587 20.9115C8.96587 21.0791 8.82318 21.2228 8.6567 21.2228C8.49023 21.2228 8.34753 21.0791 8.34753 20.9115C8.34753 20.7439 8.49023 20.6003 8.6567 20.6003C8.82318 20.5763 8.96587 20.72 8.96587 20.9115Z" fill="#515151"/>
<path d="M16.6474 8.91615C16.6236 8.91615 16.5998 8.91615 16.5761 8.89221L15.0778 7.83874C15.0302 7.79085 15.0064 7.71902 15.054 7.67114C15.1016 7.62325 15.1729 7.59931 15.2205 7.6472L16.7187 8.70067C16.7663 8.74855 16.7901 8.82038 16.7425 8.86826C16.7187 8.91615 16.6712 8.91615 16.6474 8.91615Z" fill="#A3A3A3"/>
<path d="M42.118 18.0859L41.6661 18.4451L40.8337 18.6845L41.3094 18.3493L42.118 18.0859Z" fill="#6B6B6B"/>
<path d="M39.8824 14.4946L39.4305 14.8298L38.6219 15.0693L39.0738 14.7341L39.8824 14.4946Z" fill="#6B6B6B"/>
<path d="M40.477 15.4043L39.9776 15.7395L39.1215 15.9789L39.6209 15.6437L40.477 15.4043Z" fill="#6B6B6B"/>
<path d="M39.05 20.4562C38.9074 20.4322 38.7409 20.4562 38.5982 20.5041L29.5372 24.1673L29.4421 24.5982C29.2994 25.1729 28.8 25.5799 28.2054 25.5799H30.5599L39.4543 22.9462C39.6208 22.8983 39.7635 22.8025 39.8586 22.6828L40.1916 22.2997C40.2867 22.18 40.3343 22.0364 40.2867 21.8927L40.0013 20.8393C39.9538 20.6717 39.8111 20.5519 39.6684 20.528L39.05 20.4562Z" fill="#848484"/>
<path d="M30.2983 24.9334L39.3592 21.2702C39.5019 21.2223 39.6446 21.1984 39.8111 21.2223L40.1678 21.2702L40.0489 20.8632C40.0013 20.6956 39.8586 20.5759 39.7159 20.5519L39.0738 20.4562C38.9311 20.4322 38.7647 20.4562 38.622 20.5041L29.561 24.1673L29.4659 24.5982C29.3232 25.1729 28.8238 25.5799 28.2292 25.5799H28.6573L30.2983 24.9334Z" fill="#B2B2B2"/>
<path d="M39.6921 20.5519L39.05 20.4562C38.9073 20.4322 38.7409 20.4562 38.5982 20.5041L34.1985 22.2758L35.0309 22.5152L39.2403 20.7914C39.383 20.7435 39.5257 20.7195 39.6921 20.7435L40.0251 20.7914C39.9775 20.6717 39.8586 20.5759 39.6921 20.5519Z" fill="#F5F7F7"/>
<path d="M40.0013 14.6864L38.8598 15.5244C38.8122 15.5723 38.7408 15.5483 38.6933 15.5004C38.6457 15.4526 38.6695 15.3807 38.7171 15.3328L39.8586 14.4949C39.9062 14.447 39.9775 14.4709 40.0251 14.5188C40.0489 14.5906 40.0489 14.6624 40.0013 14.6864Z" fill="#BCBCBC"/>
<path d="M40.3105 15.141L39.169 15.979C39.1214 16.0269 39.0501 16.0029 39.0025 15.955C38.9549 15.9071 38.9787 15.8353 39.0263 15.7874L40.1678 14.9494C40.2154 14.9016 40.2867 14.9255 40.3343 14.9734C40.3819 15.0213 40.3581 15.0931 40.3105 15.141Z" fill="#BCBCBC"/>
<path d="M40.1678 14.9497L39.6922 15.3088L38.8123 15.5483L39.3117 15.1891L40.1678 14.9497Z" fill="#6B6B6B"/>
<path d="M39.6684 14.3749L38.5269 15.2129C38.4793 15.2607 38.408 15.2368 38.3604 15.1889C38.3128 15.141 38.3366 15.0692 38.3842 15.0213L39.5257 14.1833C39.5733 14.1354 39.6446 14.1594 39.6922 14.2073C39.7397 14.2552 39.7397 14.327 39.6684 14.3749Z" fill="#BCBCBC"/>
<path d="M39.5495 14.1836L39.0501 14.5427L38.194 14.7822L38.6696 14.423L39.5495 14.1836Z" fill="#6B6B6B"/>
<path d="M41.024 16.3145L40.5246 16.6496L39.6685 16.913L40.1679 16.5539L41.024 16.3145Z" fill="#6B6B6B"/>
<path d="M40.5483 15.62L39.4068 16.458C39.3592 16.5059 39.2878 16.4819 39.2403 16.434C39.1927 16.3861 39.2165 16.3143 39.2641 16.2664L40.4056 15.4284C40.4532 15.3806 40.5245 15.4045 40.5721 15.4524C40.5959 15.5003 40.5959 15.5721 40.5483 15.62Z" fill="#BCBCBC"/>
<path d="M40.8575 16.0511L39.716 16.8891C39.6684 16.937 39.5971 16.9131 39.5495 16.8652C39.5019 16.8173 39.5257 16.7455 39.5733 16.6976L40.7148 15.8596C40.7624 15.8117 40.8337 15.8357 40.8813 15.8835C40.9288 15.9314 40.905 16.0272 40.8575 16.0511Z" fill="#BCBCBC"/>
<path d="M40.7148 15.8594L40.2392 16.2185L39.3593 16.4579L39.8587 16.0988L40.7148 15.8594Z" fill="#6B6B6B"/>
<path d="M41.6423 17.1763L41.1429 17.5354L40.2867 17.7748L40.7624 17.4157L41.6423 17.1763Z" fill="#6B6B6B"/>
<path d="M41.1429 16.4818L40.0014 17.3198C39.9538 17.3677 39.8825 17.3437 39.8349 17.2958C39.7873 17.248 39.8111 17.1761 39.8587 17.1283L41.0002 16.2903C41.0478 16.2424 41.1191 16.2663 41.1667 16.3142C41.2142 16.3621 41.2142 16.4339 41.1429 16.4818Z" fill="#BCBCBC"/>
<path d="M41.4758 16.9369L40.3343 17.7749C40.2867 17.8227 40.2153 17.7988 40.1678 17.7509C40.1202 17.703 40.144 17.6312 40.1916 17.5833L41.3331 16.7453C41.3807 16.6975 41.452 16.7214 41.4996 16.7693C41.5234 16.8172 41.5234 16.889 41.4758 16.9369Z" fill="#BCBCBC"/>
<path d="M41.3331 16.7212L40.8337 17.0803L39.9775 17.3198L40.477 16.9846L41.3331 16.7212Z" fill="#6B6B6B"/>
<path d="M41.6899 17.3915L40.5484 18.2295C40.5008 18.2773 40.4294 18.2534 40.3819 18.2055C40.3343 18.1576 40.3581 18.0858 40.4057 18.0379L41.5472 17.1999C41.5948 17.152 41.6661 17.176 41.7137 17.2239C41.7612 17.2718 41.7612 17.3675 41.6899 17.3915Z" fill="#BCBCBC"/>
<path d="M42.0228 17.8465L40.8812 18.6845C40.8337 18.7324 40.7623 18.7085 40.7148 18.6606C40.6672 18.6127 40.691 18.5409 40.7386 18.493L41.8801 17.655C41.9276 17.6071 41.999 17.6311 42.0466 17.679C42.0941 17.7268 42.0703 17.7987 42.0228 17.8465Z" fill="#BCBCBC"/>
<path d="M41.8801 17.6553L41.4045 17.9905L40.5245 18.2299L41.024 17.8947L41.8801 17.6553Z" fill="#6B6B6B"/>
<path d="M38.2653 14.6862L39.3593 13.92C39.4306 13.8721 39.4544 13.7524 39.4068 13.6806L39.0977 13.2736C38.8123 12.9144 38.3128 12.8426 37.9561 13.106C37.5756 13.3933 37.5043 13.92 37.7896 14.3031L38.075 14.6623C38.0988 14.7341 38.1939 14.7341 38.2653 14.6862Z" fill="#1E1A19"/>
<path d="M39.4068 13.6806L39.0976 13.2736C38.8122 12.9144 38.3128 12.8426 37.956 13.106C37.9085 13.1539 37.8609 13.2018 37.8134 13.2496C38.1463 13.1299 38.5268 13.2496 38.7409 13.537L39.05 13.944C39.0976 14.0158 39.0976 14.1355 39.0025 14.1834L38.2652 14.7101C38.2652 14.7101 38.289 14.7101 38.289 14.6862L39.383 13.92C39.4305 13.8721 39.4543 13.7524 39.4068 13.6806Z" fill="#4F4E4D"/>
<path d="M41.9752 18.1577L41.1904 18.7324C41.119 18.8042 41.0953 18.9239 41.1666 18.9957L42.2844 20.0253C42.4033 20.145 42.5935 20.145 42.7362 20.0492C42.8551 19.9534 42.9027 19.7858 42.8314 19.6182L42.1892 18.2296C42.1892 18.1338 42.0703 18.1098 41.9752 18.1577Z" fill="#1E1A19"/>
<path d="M42.8552 19.6182L42.2131 18.2296C42.1655 18.1338 42.0466 18.1098 41.9753 18.1577L41.7612 18.3253C41.8326 18.3253 41.9039 18.3493 41.9277 18.4211L42.5698 19.8098C42.6174 19.9055 42.6174 20.0253 42.5698 20.121C42.6412 20.121 42.7125 20.0971 42.7839 20.0492C42.879 19.9295 42.9265 19.7619 42.8552 19.6182Z" fill="#4F4E4D"/>
<path d="M8.58532 21.3663C8.37129 21.3663 8.18103 21.1987 8.18103 20.9593C8.18103 20.7438 8.3475 20.5522 8.58532 20.5522C8.79936 20.5522 8.98962 20.7198 8.98962 20.9593C8.98962 21.1748 8.82314 21.3663 8.58532 21.3663ZM8.58532 20.8156C8.4902 20.8156 8.41885 20.8874 8.41885 20.9832C8.41885 21.079 8.4902 21.1508 8.58532 21.1508C8.68045 21.1508 8.7518 21.079 8.7518 20.9832C8.7518 20.8874 8.68045 20.8156 8.58532 20.8156Z" fill="#BCBCBC"/>
<path d="M12.985 9.44281C13.3893 9.65829 13.7698 9.84983 14.1979 10.0174L15.6486 6.78518L14.507 6.21056C14.4595 6.18662 14.3881 6.21056 14.3643 6.25845L12.985 9.44281Z" fill="#666666"/>
<path d="M15.1016 6.52197L13.6747 9.75421C13.6272 9.73027 13.9839 9.89787 14.2217 9.99364L15.6724 6.7614L15.1016 6.52197Z" fill="#A3A3A3"/>
<path d="M16.8139 8.2458L14.0314 6.88107L14.3168 6.28251C14.3643 6.21068 14.4594 6.1628 14.5308 6.21068L17.1706 7.47964C17.3608 7.57541 17.456 7.81483 17.3608 8.00637L17.3371 8.05426C17.2419 8.2458 17.0041 8.34157 16.8139 8.2458Z" fill="#3A3A3A"/>
<path d="M17.1706 7.47964L14.5308 6.21068C14.4594 6.1628 14.3405 6.21068 14.3168 6.28251L14.0314 6.88107L14.2692 6.35434L17.0517 7.69512C17.2182 7.76694 17.2895 7.95849 17.2657 8.12608C17.2895 8.10214 17.3133 8.0782 17.3371 8.03031L17.3608 7.98243C17.456 7.81483 17.3608 7.57541 17.1706 7.47964Z" fill="#7F7C7C"/>
</svg>
