<svg viewBox="0 0 23 23" fill="none" xmlns="http://www.w3.org/2000/svg">
<g opacity="0.88">
<path d="M13.5 7.1C13.5 9.02 15.1 9.5 15.9 9.5H19.1C21.02 9.5 21.5 7.9 21.5 7.1V3.9C21.5 1.98 19.9 1.5 19.1 1.5H15.9C13.98 1.5 13.5 3.1 13.5 3.9V7.1Z" fill="#9C9C9C" stroke="#868686" stroke-width="1.3"/>
<path d="M13.5 19.1C13.5 21.02 15.1 21.5 15.9 21.5H19.1C21.02 21.5 21.5 19.9 21.5 19.1V15.9C21.5 13.98 19.9 13.5 19.1 13.5H15.9C13.98 13.5 13.5 15.1 13.5 15.9V19.1Z" fill="#9C9C9C" stroke="#868686" stroke-width="1.3"/>
<path d="M1.5 7.1C1.5 9.02 3.1 9.5 3.9 9.5H7.1C9.02 9.5 9.5 7.9 9.5 7.1V3.9C9.5 1.98 7.9 1.5 7.1 1.5H3.9C1.98 1.5 1.5 3.1 1.5 3.9V7.1Z" fill="#9C9C9C" stroke="#868686" stroke-width="1.3"/>
<path d="M1.5 19.1C1.5 21.02 3.1 21.5 3.9 21.5H7.1C9.02 21.5 9.5 19.9 9.5 19.1V15.9C9.5 13.98 7.9 13.5 7.1 13.5H3.9C1.98 13.5 1.5 15.1 1.5 15.9V19.1Z" fill="#9C9C9C" stroke="#868686" stroke-width="1.3"/>
</g>
</svg>
